SplineFontDB: 3.0
FontName: nootka
FullName: nootka
FamilyName: nootka
Weight: Medium
Copyright: Created by SeeLook with FontForge 2.0 (http://fontforge.sf.net) with Emmentaler font from LilyPond project
Version: 001.000
ItalicAngle: 0
UnderlinePosition: -100
UnderlineWidth: 50
Ascent: 800
Descent: 200
sfntRevision: 0x00010000
LayerCount: 2
Layer: 0 1 "Warstwa t+AUIA-a"  1
Layer: 1 1 "Plan pierwszy"  0
XUID: [1021 905 4475020 9871967]
FSType: 0
OS2Version: 4
OS2_WeightWidthSlopeOnly: 0
OS2_UseTypoMetrics: 1
CreationTime: 1307821124
ModificationTime: 1378575766
PfmFamily: 17
TTFWeight: 500
TTFWidth: 5
LineGap: 90
VLineGap: 0
Panose: 2 0 6 9 0 0 0 0 0 0
OS2TypoAscent: 0
OS2TypoAOffset: 1
OS2TypoDescent: 0
OS2TypoDOffset: 1
OS2TypoLinegap: 90
OS2WinAscent: 1
OS2WinAOffset: 1
OS2WinDescent: 0
OS2WinDOffset: 1
HheadAscent: 1
HheadAOffset: 1
HheadDescent: 0
HheadDOffset: 1
OS2SubXSize: 650
OS2SubYSize: 700
OS2SubXOff: 0
OS2SubYOff: 140
OS2SupXSize: 650
OS2SupYSize: 700
OS2SupXOff: 0
OS2SupYOff: 480
OS2StrikeYSize: 49
OS2StrikeYPos: 258
OS2Vendor: 'PfEd'
OS2CodePages: 00000001.00000000
OS2UnicodeRanges: 00000001.10000000.00000000.00000000
MarkAttachClasses: 1
DEI: 91125
ShortTable: cvt  2
  33
  633
EndShort
ShortTable: maxp 16
  1
  0
  24
  164
  7
  0
  0
  2
  0
  1
  1
  0
  64
  46
  0
  0
EndShort
LangName: 1033 "" "" "" "FontForge 2.0 : nootka : 15-12-2011" 
GaspTable: 1 65535 2 0
Encoding: UnicodeBmp
UnicodeInterp: none
NameList: Adobe Glyph List
DisplaySize: -96
AntiAlias: 1
FitToEm: 1
WinInfo: 100 10 3
BeginChars: 65539 42

StartChar: .notdef
Encoding: 65536 -1 0
Width: 1000
Flags: W
LayerCount: 2
Fore
SplineSet
33 0 m 1,0,-1
 33 666 l 1,1,-1
 298 666 l 1,2,-1
 298 0 l 1,3,-1
 33 0 l 1,0,-1
66 33 m 1,4,-1
 265 33 l 1,5,-1
 265 633 l 1,6,-1
 66 633 l 1,7,-1
 66 33 l 1,4,-1
EndSplineSet
Validated: 1
EndChar

StartChar: space
Encoding: 32 32 3
Width: 1000
Flags: W
LayerCount: 2
Fore
SplineSet
590 118 m 1,0,-1
 380 118 l 1,1,-1
 590 118 l 1,0,-1
EndSplineSet
Validated: 1
EndChar

StartChar: numbersign
Encoding: 35 35 4
Width: 1000
Flags: W
LayerCount: 2
Fore
SplineSet
603 256 m 1,0,1
 615 260 615 260 622 260 c 0,2,3
 639 260 639 260 652 247.5 c 128,-1,4
 665 235 665 235 665 217 c 2,5,-1
 665 168 l 2,6,7
 665 155 665 155 657.5 144 c 128,-1,8
 650 133 650 133 639 128 c 2,9,-1
 603 113 l 1,10,-1
 603 -60 l 2,11,12
 603 -73 603 -73 594 -82 c 128,-1,13
 585 -91 585 -91 572.5 -91 c 128,-1,14
 560 -91 560 -91 550.5 -82 c 128,-1,15
 541 -73 541 -73 541 -60 c 2,16,-1
 541 89 l 1,17,-1
 459 54 l 1,18,-1
 459 -120 l 2,19,20
 459 -132 459 -132 449.5 -141 c 128,-1,21
 440 -150 440 -150 427.5 -150 c 128,-1,22
 415 -150 415 -150 406 -141.5 c 128,-1,23
 397 -133 397 -133 397 -120 c 2,24,-1
 397 29 l 1,25,26
 385 24 385 24 378 24 c 0,27,28
 361 24 361 24 348 36.5 c 128,-1,29
 335 49 335 49 335 67 c 2,30,-1
 335 118 l 2,31,32
 335 130 335 130 342.5 141.5 c 128,-1,33
 350 153 350 153 361 157 c 2,34,-1
 397 172 l 1,35,-1
 397 344 l 1,36,37
 385 340 385 340 378 340 c 0,38,39
 361 340 361 340 348 352.5 c 128,-1,40
 335 365 335 365 335 383 c 2,41,-1
 335 432 l 2,42,43
 335 445 335 445 342.5 456 c 128,-1,44
 350 467 350 467 361 472 c 2,45,-1
 397 487 l 1,46,-1
 397 660 l 2,47,48
 397 673 397 673 406 682 c 128,-1,49
 415 691 415 691 427.5 691 c 128,-1,50
 440 691 440 691 449.5 682 c 128,-1,51
 459 673 459 673 459 660 c 2,52,-1
 459 511 l 1,53,-1
 541 546 l 1,54,-1
 541 720 l 2,55,56
 541 732 541 732 550.5 741 c 128,-1,57
 560 750 560 750 572.5 750 c 128,-1,58
 585 750 585 750 594 741.5 c 128,-1,59
 603 733 603 733 603 720 c 2,60,-1
 603 571 l 1,61,62
 615 576 615 576 622 576 c 0,63,64
 639 576 639 576 652 563.5 c 128,-1,65
 665 551 665 551 665 533 c 2,66,-1
 665 482 l 2,67,68
 665 470 665 470 657.5 458.5 c 128,-1,69
 650 447 650 447 639 443 c 2,70,-1
 603 428 l 1,71,-1
 603 256 l 1,0,1
541 403 m 1,72,-1
 459 370 l 1,73,-1
 459 197 l 1,74,-1
 541 230 l 1,75,-1
 541 403 l 1,72,-1
EndSplineSet
Validated: 1
EndChar

StartChar: one
Encoding: 49 49 5
Width: 920
Flags: W
LayerCount: 2
Fore
SplineSet
463.150390625 621.900390625 m 128,-1,1
 477.099609375 621.900390625 477.099609375 621.900390625 495.549804688 629.549804688 c 128,-1,2
 514 637.200195312 514 637.200195312 515.799804688 637.200195312 c 0,3,4
 522.099609375 637.200195312 522.099609375 637.200195312 527.5 630.900390625 c 128,-1,5
 532.900390625 624.599609375 532.900390625 624.599609375 532.900390625 614.700195312 c 2,6,-1
 532.900390625 239.400390625 l 2,7,8
 532.900390625 195.299804688 532.900390625 195.299804688 557.200195312 163.799804688 c 128,-1,9
 581.5 132.299804688 581.5 132.299804688 619.299804688 132.299804688 c 0,10,11
 634.599609375 132.299804688 634.599609375 132.299804688 634.599609375 116.099609375 c 0,12,13
 634.599609375 100.799804688 634.599609375 100.799804688 619.299804688 100.799804688 c 0,14,15
 593.200195312 100.799804688 593.200195312 100.799804688 541.450195312 108.450195312 c 128,-1,16
 489.700195312 116.099609375 489.700195312 116.099609375 463.150390625 116.099609375 c 128,-1,17
 436.599609375 116.099609375 436.599609375 116.099609375 385.299804688 108.450195312 c 128,-1,18
 334 100.799804688 334 100.799804688 307.900390625 100.799804688 c 0,19,20
 299.799804688 100.799804688 299.799804688 100.799804688 295.75 105.299804688 c 128,-1,21
 291.700195312 109.799804688 291.700195312 109.799804688 291.700195312 116.099609375 c 128,-1,22
 291.700195312 122.400390625 291.700195312 122.400390625 295.75 127.349609375 c 128,-1,23
 299.799804688 132.299804688 299.799804688 132.299804688 307.900390625 132.299804688 c 0,24,25
 345.700195312 132.299804688 345.700195312 132.299804688 369.549804688 163.799804688 c 128,-1,26
 393.400390625 195.299804688 393.400390625 195.299804688 393.400390625 239.400390625 c 2,27,-1
 393.400390625 469.799804688 l 2,28,29
 393.400390625 480.599609375 393.400390625 480.599609375 386.650390625 487.349609375 c 128,-1,30
 379.900390625 494.099609375 379.900390625 494.099609375 371.799804688 494.099609375 c 0,31,32
 362.799804688 494.099609375 362.799804688 494.099609375 360.099609375 486.900390625 c 2,33,-1
 289.900390625 350.099609375 l 1,34,35
 283.599609375 341.099609375 283.599609375 341.099609375 273.700195312 341.099609375 c 0,36,37
 265.599609375 341.099609375 265.599609375 341.099609375 259.299804688 346.049804688 c 128,-1,38
 253 351 253 351 253 359.099609375 c 0,39,40
 253 365.400390625 253 365.400390625 254.799804688 369 c 2,41,-1
 393.400390625 636.299804688 l 2,42,43
 395.200195312 640.799804688 395.200195312 640.799804688 400.599609375 640.799804688 c 256,44,45
 406 640.799804688 406 640.799804688 427.599609375 631.349609375 c 128,-1,0
 449.200195312 621.900390625 449.200195312 621.900390625 463.150390625 621.900390625 c 128,-1,1
460 720 m 128,-1,47
 558.099609375 720 558.099609375 720 640.900390625 671.849609375 c 128,-1,48
 723.700195312 623.700195312 723.700195312 623.700195312 771.849609375 540.900390625 c 128,-1,49
 820 458.099609375 820 458.099609375 820 360 c 128,-1,50
 820 261.900390625 820 261.900390625 771.849609375 179.099609375 c 128,-1,51
 723.700195312 96.2998046875 723.700195312 96.2998046875 640.900390625 48.150390625 c 128,-1,52
 558.099609375 0 558.099609375 0 460 0 c 128,-1,53
 361.900390625 0 361.900390625 0 279.099609375 48.150390625 c 128,-1,54
 196.299804688 96.2998046875 196.299804688 96.2998046875 148.150390625 179.099609375 c 128,-1,55
 100 261.900390625 100 261.900390625 100 360 c 128,-1,56
 100 458.099609375 100 458.099609375 148.150390625 540.900390625 c 128,-1,57
 196.299804688 623.700195312 196.299804688 623.700195312 279.099609375 671.849609375 c 128,-1,46
 361.900390625 720 361.900390625 720 460 720 c 128,-1,47
460 701.099609375 m 128,-1,59
 367.299804688 701.099609375 367.299804688 701.099609375 289 655.650390625 c 128,-1,60
 210.700195312 610.200195312 210.700195312 610.200195312 164.799804688 531.450195312 c 128,-1,61
 118.900390625 452.700195312 118.900390625 452.700195312 118.900390625 360 c 128,-1,62
 118.900390625 267.299804688 118.900390625 267.299804688 164.799804688 188.549804688 c 128,-1,63
 210.700195312 109.799804688 210.700195312 109.799804688 289 64.349609375 c 128,-1,64
 367.299804688 18.900390625 367.299804688 18.900390625 460 18.900390625 c 128,-1,65
 552.700195312 18.900390625 552.700195312 18.900390625 631 64.349609375 c 128,-1,66
 709.299804688 109.799804688 709.299804688 109.799804688 755.200195312 188.549804688 c 128,-1,67
 801.099609375 267.299804688 801.099609375 267.299804688 801.099609375 360 c 128,-1,68
 801.099609375 452.700195312 801.099609375 452.700195312 755.200195312 531.450195312 c 128,-1,69
 709.299804688 610.200195312 709.299804688 610.200195312 631 655.650390625 c 128,-1,58
 552.700195312 701.099609375 552.700195312 701.099609375 460 701.099609375 c 128,-1,59
EndSplineSet
Validated: 1
EndChar

StartChar: two
Encoding: 50 50 6
Width: 920
Flags: W
LayerCount: 2
Fore
SplineSet
518.5 100.799804688 m 0,0,1
 489.700195312 100.799804688 489.700195312 100.799804688 468.549804688 108.450195312 c 128,-1,2
 447.400390625 116.099609375 447.400390625 116.099609375 435.25 126.900390625 c 128,-1,3
 423.099609375 137.700195312 423.099609375 137.700195312 412.75 148.950195312 c 128,-1,4
 402.400390625 160.200195312 402.400390625 160.200195312 389.799804688 167.849609375 c 128,-1,5
 377.200195312 175.5 377.200195312 175.5 361.900390625 175.5 c 0,6,7
 337.599609375 175.5 337.599609375 175.5 318.25 158.849609375 c 128,-1,8
 298.900390625 142.200195312 298.900390625 142.200195312 297.099609375 115.200195312 c 0,9,10
 295.299804688 100.799804688 295.299804688 100.799804688 281.799804688 100.799804688 c 0,11,12
 275.5 100.799804688 275.5 100.799804688 270.549804688 104.849609375 c 128,-1,13
 265.599609375 108.900390625 265.599609375 108.900390625 265.599609375 116.099609375 c 0,14,15
 265.599609375 145.799804688 265.599609375 145.799804688 276.400390625 172.349609375 c 128,-1,16
 287.200195312 198.900390625 287.200195312 198.900390625 304.75 218.25 c 128,-1,17
 322.299804688 237.599609375 322.299804688 237.599609375 345.25 257.400390625 c 128,-1,18
 368.200195312 277.200195312 368.200195312 277.200195312 391.599609375 293.400390625 c 128,-1,19
 415 309.599609375 415 309.599609375 437.5 329.849609375 c 128,-1,20
 460 350.099609375 460 350.099609375 478 371.25 c 128,-1,21
 496 392.400390625 496 392.400390625 506.799804688 421.650390625 c 128,-1,22
 517.599609375 450.900390625 517.599609375 450.900390625 517.599609375 484.200195312 c 256,23,24
 517.599609375 517.5 517.599609375 517.5 511.75 544.049804688 c 128,-1,25
 505.900390625 570.599609375 505.900390625 570.599609375 490.150390625 589.950195312 c 128,-1,26
 474.400390625 609.299804688 474.400390625 609.299804688 450.099609375 609.299804688 c 0,27,28
 421.299804688 609.299804688 421.299804688 609.299804688 400.150390625 596.700195312 c 128,-1,29
 379 584.099609375 379 584.099609375 379 561.599609375 c 0,30,31
 379 549 379 549 395.650390625 529.200195312 c 128,-1,32
 412.299804688 509.400390625 412.299804688 509.400390625 412.299804688 495.900390625 c 0,33,34
 412.299804688 468.900390625 412.299804688 468.900390625 393.400390625 449.549804688 c 128,-1,35
 374.5 430.200195312 374.5 430.200195312 346.599609375 430.200195312 c 128,-1,36
 318.700195312 430.200195312 318.700195312 430.200195312 299.799804688 449.549804688 c 128,-1,37
 280.900390625 468.900390625 280.900390625 468.900390625 280.900390625 495.900390625 c 0,38,39
 280.900390625 558 280.900390625 558 331.299804688 599.400390625 c 128,-1,40
 381.700195312 640.799804688 381.700195312 640.799804688 450.099609375 640.799804688 c 0,41,42
 533.799804688 640.799804688 533.799804688 640.799804688 595 597.599609375 c 128,-1,43
 656.200195312 554.400390625 656.200195312 554.400390625 656.200195312 484.200195312 c 0,44,45
 656.200195312 447.299804688 656.200195312 447.299804688 644.5 417.599609375 c 128,-1,46
 632.799804688 387.900390625 632.799804688 387.900390625 615.25 369.450195312 c 128,-1,47
 597.700195312 351 597.700195312 351 569.799804688 334.799804688 c 128,-1,48
 541.900390625 318.599609375 541.900390625 318.599609375 517.599609375 309.150390625 c 128,-1,49
 493.299804688 299.700195312 493.299804688 299.700195312 459.549804688 286.200195312 c 128,-1,50
 425.799804688 272.700195312 425.799804688 272.700195312 405.099609375 261.900390625 c 1,51,-1
 412.299804688 261.900390625 l 2,52,53
 444.700195312 261.900390625 444.700195312 261.900390625 472.599609375 251.549804688 c 128,-1,54
 500.5 241.200195312 500.5 241.200195312 516.700195312 228.599609375 c 128,-1,55
 532.900390625 216 532.900390625 216 554.049804688 206.099609375 c 128,-1,56
 575.200195312 196.200195312 575.200195312 196.200195312 595.900390625 196.200195312 c 0,57,58
 614.799804688 196.200195312 614.799804688 196.200195312 626.049804688 202.950195312 c 128,-1,59
 637.299804688 209.700195312 637.299804688 209.700195312 640.450195312 218.25 c 128,-1,60
 643.599609375 226.799804688 643.599609375 226.799804688 648.099609375 234 c 128,-1,61
 652.599609375 241.200195312 652.599609375 241.200195312 659.799804688 241.200195312 c 0,62,63
 666.099609375 241.200195312 666.099609375 241.200195312 671.049804688 237.150390625 c 128,-1,64
 676 233.099609375 676 233.099609375 676 225.900390625 c 0,65,66
 676 215.099609375 676 215.099609375 666.099609375 195.75 c 128,-1,67
 656.200195312 176.400390625 656.200195312 176.400390625 638.200195312 154.349609375 c 128,-1,68
 620.200195312 132.299804688 620.200195312 132.299804688 588.25 116.549804688 c 128,-1,69
 556.299804688 100.799804688 556.299804688 100.799804688 518.5 100.799804688 c 0,0,1
820 360 m 128,-1,71
 820 261.900390625 820 261.900390625 771.849609375 179.099609375 c 128,-1,72
 723.700195312 96.2998046875 723.700195312 96.2998046875 640.900390625 48.150390625 c 128,-1,73
 558.099609375 0 558.099609375 0 460 0 c 128,-1,74
 361.900390625 0 361.900390625 0 279.099609375 48.150390625 c 128,-1,75
 196.299804688 96.2998046875 196.299804688 96.2998046875 148.150390625 179.099609375 c 128,-1,76
 100 261.900390625 100 261.900390625 100 360 c 128,-1,77
 100 458.099609375 100 458.099609375 148.150390625 540.900390625 c 128,-1,78
 196.299804688 623.700195312 196.299804688 623.700195312 279.099609375 671.849609375 c 128,-1,79
 361.900390625 720 361.900390625 720 460 720 c 128,-1,80
 558.099609375 720 558.099609375 720 640.900390625 671.849609375 c 128,-1,81
 723.700195312 623.700195312 723.700195312 623.700195312 771.849609375 540.900390625 c 128,-1,70
 820 458.099609375 820 458.099609375 820 360 c 128,-1,71
801.099609375 360 m 128,-1,83
 801.099609375 452.700195312 801.099609375 452.700195312 755.650390625 531 c 128,-1,84
 710.200195312 609.299804688 710.200195312 609.299804688 631.450195312 655.200195312 c 128,-1,85
 552.700195312 701.099609375 552.700195312 701.099609375 460 701.099609375 c 128,-1,86
 367.299804688 701.099609375 367.299804688 701.099609375 288.549804688 655.200195312 c 128,-1,87
 209.799804688 609.299804688 209.799804688 609.299804688 164.349609375 531 c 128,-1,88
 118.900390625 452.700195312 118.900390625 452.700195312 118.900390625 360 c 128,-1,89
 118.900390625 267.299804688 118.900390625 267.299804688 164.349609375 189 c 128,-1,90
 209.799804688 110.700195312 209.799804688 110.700195312 288.549804688 64.7998046875 c 128,-1,91
 367.299804688 18.900390625 367.299804688 18.900390625 460 18.900390625 c 128,-1,92
 552.700195312 18.900390625 552.700195312 18.900390625 631.450195312 64.7998046875 c 128,-1,93
 710.200195312 110.700195312 710.200195312 110.700195312 755.650390625 189 c 128,-1,82
 801.099609375 267.299804688 801.099609375 267.299804688 801.099609375 360 c 128,-1,83
EndSplineSet
Validated: 1
EndChar

StartChar: three
Encoding: 51 51 7
Width: 920
Flags: W
LayerCount: 2
Fore
SplineSet
575.200195312 385.900390625 m 0,0,1
 575.200195312 375.099609375 575.200195312 375.099609375 583.75 366.549804688 c 128,-1,2
 592.299804688 358 592.299804688 358 604.450195312 350.349609375 c 128,-1,3
 616.599609375 342.700195312 616.599609375 342.700195312 628.75 332.349609375 c 128,-1,4
 640.900390625 322 640.900390625 322 649.450195312 301.299804688 c 128,-1,5
 658 280.599609375 658 280.599609375 658 250.900390625 c 0,6,7
 658 178 658 178 601.299804688 138.400390625 c 128,-1,8
 544.599609375 98.7998046875 544.599609375 98.7998046875 456.400390625 98.7998046875 c 0,9,10
 387.099609375 98.7998046875 387.099609375 98.7998046875 335.349609375 134.349609375 c 128,-1,11
 283.599609375 169.900390625 283.599609375 169.900390625 283.599609375 227.5 c 0,12,13
 283.599609375 253.599609375 283.599609375 253.599609375 302.049804688 271.599609375 c 128,-1,14
 320.5 289.599609375 320.5 289.599609375 346.599609375 289.599609375 c 128,-1,15
 372.700195312 289.599609375 372.700195312 289.599609375 391.150390625 271.599609375 c 128,-1,16
 409.599609375 253.599609375 409.599609375 253.599609375 409.599609375 227.5 c 0,17,18
 409.599609375 215.799804688 409.599609375 215.799804688 389.799804688 201.400390625 c 128,-1,19
 370 187 370 187 370 175.299804688 c 0,20,21
 370 151 370 151 395.200195312 140.650390625 c 128,-1,22
 420.400390625 130.299804688 420.400390625 130.299804688 456.400390625 130.299804688 c 0,23,24
 517.599609375 130.299804688 517.599609375 130.299804688 517.599609375 250.900390625 c 2,25,-1
 517.599609375 292.299804688 l 2,26,27
 517.599609375 330.099609375 517.599609375 330.099609375 508.599609375 348.549804688 c 128,-1,28
 499.599609375 367 499.599609375 367 470.799804688 367 c 2,29,-1
 390.700195312 367 l 2,30,31
 381.700195312 367 381.700195312 367 376.75 372.400390625 c 128,-1,32
 371.799804688 377.799804688 371.799804688 377.799804688 371.799804688 385.900390625 c 128,-1,33
 371.799804688 394 371.799804688 394 376.75 399.849609375 c 128,-1,34
 381.700195312 405.700195312 381.700195312 405.700195312 390.700195312 405.700195312 c 2,35,-1
 470.799804688 405.700195312 l 2,36,37
 500.5 405.700195312 500.5 405.700195312 509.049804688 424.599609375 c 128,-1,38
 517.599609375 443.5 517.599609375 443.5 517.599609375 484 c 2,39,-1
 517.599609375 516.400390625 l 2,40,41
 517.599609375 607.299804688 517.599609375 607.299804688 451 607.299804688 c 0,42,43
 375.400390625 607.299804688 375.400390625 607.299804688 375.400390625 566.799804688 c 0,44,45
 375.400390625 556 375.400390625 556 392.5 543.849609375 c 128,-1,46
 409.599609375 531.700195312 409.599609375 531.700195312 409.599609375 520.900390625 c 0,47,48
 409.599609375 498.400390625 409.599609375 498.400390625 393.400390625 482.200195312 c 128,-1,49
 377.200195312 466 377.200195312 466 354.25 466 c 128,-1,50
 331.299804688 466 331.299804688 466 315.099609375 482.200195312 c 128,-1,51
 298.900390625 498.400390625 298.900390625 498.400390625 298.900390625 520.900390625 c 0,52,53
 298.900390625 573.099609375 298.900390625 573.099609375 344.349609375 605.950195312 c 128,-1,54
 389.799804688 638.799804688 389.799804688 638.799804688 451 638.799804688 c 0,55,56
 504.099609375 638.799804688 504.099609375 638.799804688 545.049804688 627.099609375 c 128,-1,57
 586 615.400390625 586 615.400390625 612.549804688 587.049804688 c 128,-1,58
 639.099609375 558.700195312 639.099609375 558.700195312 639.099609375 516.400390625 c 0,59,60
 639.099609375 483.099609375 639.099609375 483.099609375 632.799804688 461.5 c 128,-1,61
 626.5 439.900390625 626.5 439.900390625 617.049804688 431.799804688 c 128,-1,62
 607.599609375 423.700195312 607.599609375 423.700195312 598.150390625 418.299804688 c 128,-1,63
 588.700195312 412.900390625 588.700195312 412.900390625 581.950195312 405.700195312 c 128,-1,64
 575.200195312 398.5 575.200195312 398.5 575.200195312 385.900390625 c 0,0,1
460 718 m 128,-1,66
 558.099609375 718 558.099609375 718 640.900390625 669.849609375 c 128,-1,67
 723.700195312 621.700195312 723.700195312 621.700195312 771.849609375 538.450195312 c 128,-1,68
 820 455.200195312 820 455.200195312 820 357.549804688 c 128,-1,69
 820 259.900390625 820 259.900390625 771.849609375 177.099609375 c 128,-1,70
 723.700195312 94.2998046875 723.700195312 94.2998046875 640.900390625 46.150390625 c 128,-1,71
 558.099609375 -2 558.099609375 -2 460 -2 c 128,-1,72
 361.900390625 -2 361.900390625 -2 279.099609375 46.150390625 c 128,-1,73
 196.299804688 94.2998046875 196.299804688 94.2998046875 148.150390625 177.099609375 c 128,-1,74
 100 259.900390625 100 259.900390625 100 357.549804688 c 128,-1,75
 100 455.200195312 100 455.200195312 148.150390625 538.450195312 c 128,-1,76
 196.299804688 621.700195312 196.299804688 621.700195312 279.099609375 669.849609375 c 128,-1,65
 361.900390625 718 361.900390625 718 460 718 c 128,-1,66
460 699.099609375 m 128,-1,78
 367.299804688 699.099609375 367.299804688 699.099609375 289 653.650390625 c 128,-1,79
 210.700195312 608.200195312 210.700195312 608.200195312 164.799804688 529.450195312 c 128,-1,80
 118.900390625 450.700195312 118.900390625 450.700195312 118.900390625 358 c 128,-1,81
 118.900390625 265.299804688 118.900390625 265.299804688 164.799804688 186.549804688 c 128,-1,82
 210.700195312 107.799804688 210.700195312 107.799804688 289 62.349609375 c 128,-1,83
 367.299804688 16.900390625 367.299804688 16.900390625 460 16.900390625 c 128,-1,84
 552.700195312 16.900390625 552.700195312 16.900390625 631.450195312 62.349609375 c 128,-1,85
 710.200195312 107.799804688 710.200195312 107.799804688 755.650390625 186.549804688 c 128,-1,86
 801.099609375 265.299804688 801.099609375 265.299804688 801.099609375 358 c 128,-1,87
 801.099609375 450.700195312 801.099609375 450.700195312 755.650390625 529.450195312 c 128,-1,88
 710.200195312 608.200195312 710.200195312 608.200195312 631.450195312 653.650390625 c 128,-1,77
 552.700195312 699.099609375 552.700195312 699.099609375 460 699.099609375 c 128,-1,78
EndSplineSet
Validated: 1
EndChar

StartChar: four
Encoding: 52 52 8
Width: 920
Flags: W
LayerCount: 2
Fore
SplineSet
350.200195312 642.799804688 m 0,0,1
 351.099609375 642.799804688 351.099609375 642.799804688 364.599609375 638.75 c 128,-1,2
 378.099609375 634.700195312 378.099609375 634.700195312 398.799804688 630.650390625 c 128,-1,3
 419.5 626.599609375 419.5 626.599609375 436.599609375 626.599609375 c 0,4,5
 462.700195312 626.599609375 462.700195312 626.599609375 493.299804688 634.700195312 c 128,-1,6
 523.900390625 642.799804688 523.900390625 642.799804688 526.599609375 642.799804688 c 0,7,8
 533.799804688 642.799804688 533.799804688 642.799804688 539.200195312 638.299804688 c 128,-1,9
 544.599609375 633.799804688 544.599609375 633.799804688 544.599609375 627.5 c 0,10,11
 544.599609375 622.099609375 544.599609375 622.099609375 542.799804688 620.299804688 c 2,12,-1
 238.599609375 276.5 l 1,13,-1
 402.400390625 276.5 l 1,14,-1
 402.400390625 380 l 2,15,16
 402.400390625 398.900390625 402.400390625 398.900390625 413.200195312 407.900390625 c 128,-1,17
 424 416.900390625 424 416.900390625 445.150390625 429.950195312 c 128,-1,18
 466.299804688 443 466.299804688 443 483.400390625 464.599609375 c 0,19,20
 493.299804688 478.099609375 493.299804688 478.099609375 500.5 495.200195312 c 128,-1,21
 507.700195312 512.299804688 507.700195312 512.299804688 512.650390625 520.400390625 c 128,-1,22
 517.599609375 528.5 517.599609375 528.5 524.799804688 528.5 c 256,23,24
 532 528.5 532 528.5 537.400390625 523.549804688 c 128,-1,25
 542.799804688 518.599609375 542.799804688 518.599609375 542.799804688 510.5 c 2,26,-1
 542.799804688 276.5 l 1,27,-1
 627.400390625 276.5 l 2,28,29
 636.400390625 276.5 636.400390625 276.5 641.799804688 270.650390625 c 128,-1,30
 647.200195312 264.799804688 647.200195312 264.799804688 647.200195312 257.150390625 c 128,-1,31
 647.200195312 249.5 647.200195312 249.5 641.799804688 243.650390625 c 128,-1,32
 636.400390625 237.799804688 636.400390625 237.799804688 627.400390625 237.799804688 c 2,33,-1
 542.799804688 237.799804688 l 1,34,35
 543.700195312 194.599609375 543.700195312 194.599609375 567.549804688 164.450195312 c 128,-1,36
 591.400390625 134.299804688 591.400390625 134.299804688 628.299804688 134.299804688 c 0,37,38
 636.400390625 134.299804688 636.400390625 134.299804688 640.450195312 129.349609375 c 128,-1,39
 644.5 124.400390625 644.5 124.400390625 644.5 118.099609375 c 128,-1,40
 644.5 111.799804688 644.5 111.799804688 640.450195312 107.299804688 c 128,-1,41
 636.400390625 102.799804688 636.400390625 102.799804688 628.299804688 102.799804688 c 0,42,43
 602.200195312 102.799804688 602.200195312 102.799804688 550.450195312 110.450195312 c 128,-1,44
 498.700195312 118.099609375 498.700195312 118.099609375 472.150390625 118.099609375 c 128,-1,45
 445.599609375 118.099609375 445.599609375 118.099609375 393.400390625 110.450195312 c 128,-1,46
 341.200195312 102.799804688 341.200195312 102.799804688 315.099609375 102.799804688 c 0,47,48
 299.799804688 102.799804688 299.799804688 102.799804688 299.799804688 118.099609375 c 0,49,50
 299.799804688 134.299804688 299.799804688 134.299804688 315.099609375 134.299804688 c 0,51,52
 352 134.299804688 352 134.299804688 376.299804688 164.450195312 c 128,-1,53
 400.599609375 194.599609375 400.599609375 194.599609375 402.400390625 237.799804688 c 1,54,-1
 238.599609375 237.799804688 l 2,55,56
 217 237.799804688 217 237.799804688 207.099609375 247.25 c 128,-1,57
 197.200195312 256.700195312 197.200195312 256.700195312 197.200195312 267.5 c 0,58,59
 197.200195312 271.099609375 197.200195312 271.099609375 211.150390625 288.650390625 c 128,-1,60
 225.099609375 306.200195312 225.099609375 306.200195312 244.900390625 336.349609375 c 128,-1,61
 264.700195312 366.5 264.700195312 366.5 284.5 405.650390625 c 128,-1,62
 304.299804688 444.799804688 304.299804688 444.799804688 318.25 501.950195312 c 128,-1,63
 332.200195312 559.099609375 332.200195312 559.099609375 332.200195312 620.299804688 c 0,64,65
 332.200195312 629.299804688 332.200195312 629.299804688 337.599609375 636.049804688 c 128,-1,66
 343 642.799804688 343 642.799804688 350.200195312 642.799804688 c 0,0,1
460 722 m 128,-1,68
 558.099609375 722 558.099609375 722 640.900390625 673.849609375 c 128,-1,69
 723.700195312 625.700195312 723.700195312 625.700195312 771.849609375 542.450195312 c 128,-1,70
 820 459.200195312 820 459.200195312 820 361.549804688 c 128,-1,71
 820 263.900390625 820 263.900390625 771.849609375 181.099609375 c 128,-1,72
 723.700195312 98.2998046875 723.700195312 98.2998046875 640.900390625 50.150390625 c 128,-1,73
 558.099609375 2 558.099609375 2 460 2 c 128,-1,74
 361.900390625 2 361.900390625 2 279.099609375 50.150390625 c 128,-1,75
 196.299804688 98.2998046875 196.299804688 98.2998046875 148.150390625 181.099609375 c 128,-1,76
 100 263.900390625 100 263.900390625 100 361.549804688 c 128,-1,77
 100 459.200195312 100 459.200195312 148.150390625 542.450195312 c 128,-1,78
 196.299804688 625.700195312 196.299804688 625.700195312 279.099609375 673.849609375 c 128,-1,67
 361.900390625 722 361.900390625 722 460 722 c 128,-1,68
460 703.099609375 m 128,-1,80
 367.299804688 703.099609375 367.299804688 703.099609375 289 657.650390625 c 128,-1,81
 210.700195312 612.200195312 210.700195312 612.200195312 164.799804688 533.450195312 c 128,-1,82
 118.900390625 454.700195312 118.900390625 454.700195312 118.900390625 362 c 128,-1,83
 118.900390625 269.299804688 118.900390625 269.299804688 164.799804688 190.549804688 c 128,-1,84
 210.700195312 111.799804688 210.700195312 111.799804688 289 66.349609375 c 128,-1,85
 367.299804688 20.900390625 367.299804688 20.900390625 460 20.900390625 c 128,-1,86
 552.700195312 20.900390625 552.700195312 20.900390625 631.450195312 66.349609375 c 128,-1,87
 710.200195312 111.799804688 710.200195312 111.799804688 755.650390625 190.549804688 c 128,-1,88
 801.099609375 269.299804688 801.099609375 269.299804688 801.099609375 362 c 128,-1,89
 801.099609375 454.700195312 801.099609375 454.700195312 755.650390625 533.450195312 c 128,-1,90
 710.200195312 612.200195312 710.200195312 612.200195312 631.450195312 657.650390625 c 128,-1,79
 552.700195312 703.099609375 552.700195312 703.099609375 460 703.099609375 c 128,-1,80
EndSplineSet
Validated: 1
EndChar

StartChar: five
Encoding: 53 53 9
Width: 920
Flags: W
LayerCount: 2
Fore
SplineSet
323.200195312 631.400390625 m 0,0,1
 324.099609375 631.400390625 324.099609375 631.400390625 332.650390625 630.049804688 c 128,-1,2
 341.200195312 628.700195312 341.200195312 628.700195312 355.150390625 626.450195312 c 128,-1,3
 369.099609375 624.200195312 369.099609375 624.200195312 386.650390625 621.950195312 c 128,-1,4
 404.200195312 619.700195312 404.200195312 619.700195312 427.599609375 617.900390625 c 128,-1,5
 451 616.099609375 451 616.099609375 473.5 616.099609375 c 0,6,7
 505.900390625 616.099609375 505.900390625 616.099609375 542.349609375 620.150390625 c 128,-1,8
 578.799804688 624.200195312 578.799804688 624.200195312 602.200195312 627.799804688 c 128,-1,9
 625.599609375 631.400390625 625.599609375 631.400390625 625.599609375 631.400390625 c 1,10,11
 634.599609375 631.400390625 634.599609375 631.400390625 640.450195312 626.900390625 c 128,-1,12
 646.299804688 622.400390625 646.299804688 622.400390625 646.299804688 616.099609375 c 0,13,14
 646.299804688 612.5 646.299804688 612.5 634.150390625 599.900390625 c 128,-1,15
 622 587.299804688 622 587.299804688 596.799804688 570.650390625 c 128,-1,16
 571.599609375 554 571.599609375 554 539.200195312 538.25 c 128,-1,17
 506.799804688 522.5 506.799804688 522.5 460 511.700195312 c 128,-1,18
 413.200195312 500.900390625 413.200195312 500.900390625 364.599609375 500.900390625 c 0,19,20
 355.599609375 500.900390625 355.599609375 500.900390625 349.299804688 494.150390625 c 128,-1,21
 343 487.400390625 343 487.400390625 343 478.400390625 c 2,22,-1
 343 399.200195312 l 1,23,24
 381.700195312 437.900390625 381.700195312 437.900390625 457.299804688 437.900390625 c 0,25,26
 554.5 437.900390625 554.5 437.900390625 607.150390625 395.150390625 c 128,-1,27
 659.799804688 352.400390625 659.799804688 352.400390625 659.799804688 264.200195312 c 0,28,29
 659.799804688 187.700195312 659.799804688 187.700195312 595.900390625 139.549804688 c 128,-1,30
 532 91.400390625 532 91.400390625 443.799804688 91.400390625 c 0,31,32
 371.799804688 91.400390625 371.799804688 91.400390625 319.599609375 126.049804688 c 128,-1,33
 267.400390625 160.700195312 267.400390625 160.700195312 267.400390625 220.099609375 c 0,34,35
 267.400390625 246.200195312 267.400390625 246.200195312 285.400390625 264.200195312 c 128,-1,36
 303.400390625 282.200195312 303.400390625 282.200195312 329.5 282.200195312 c 128,-1,37
 355.599609375 282.200195312 355.599609375 282.200195312 374.049804688 264.200195312 c 128,-1,38
 392.5 246.200195312 392.5 246.200195312 392.5 220.099609375 c 0,39,40
 392.5 208.400390625 392.5 208.400390625 373.150390625 194 c 128,-1,41
 353.799804688 179.599609375 353.799804688 179.599609375 353.799804688 167.900390625 c 0,42,43
 353.799804688 122.900390625 353.799804688 122.900390625 443.799804688 122.900390625 c 0,44,45
 472.599609375 122.900390625 472.599609375 122.900390625 490.150390625 144.5 c 128,-1,46
 507.700195312 166.099609375 507.700195312 166.099609375 514.450195312 196.25 c 128,-1,47
 521.200195312 226.400390625 521.200195312 226.400390625 521.200195312 264.200195312 c 0,48,49
 521.200195312 399.200195312 521.200195312 399.200195312 457.299804688 399.200195312 c 0,50,51
 415 399.200195312 415 399.200195312 388.450195312 391.549804688 c 128,-1,52
 361.900390625 383.900390625 361.900390625 383.900390625 354.25 374.450195312 c 128,-1,53
 346.599609375 365 346.599609375 365 338.950195312 357.349609375 c 128,-1,54
 331.299804688 349.700195312 331.299804688 349.700195312 323.200195312 349.700195312 c 256,55,56
 315.099609375 349.700195312 315.099609375 349.700195312 309.25 355.099609375 c 128,-1,57
 303.400390625 360.5 303.400390625 360.5 303.400390625 368.599609375 c 2,58,-1
 303.400390625 609.799804688 l 2,59,60
 303.400390625 618.799804688 303.400390625 618.799804688 309.25 625.099609375 c 128,-1,61
 315.099609375 631.400390625 315.099609375 631.400390625 323.200195312 631.400390625 c 0,0,1
460 725 m 128,-1,63
 558.099609375 725 558.099609375 725 640.900390625 676.849609375 c 128,-1,64
 723.700195312 628.700195312 723.700195312 628.700195312 771.849609375 545.450195312 c 128,-1,65
 820 462.200195312 820 462.200195312 820 364.549804688 c 128,-1,66
 820 266.900390625 820 266.900390625 771.849609375 184.099609375 c 128,-1,67
 723.700195312 101.299804688 723.700195312 101.299804688 640.900390625 53.150390625 c 128,-1,68
 558.099609375 5 558.099609375 5 460 5 c 128,-1,69
 361.900390625 5 361.900390625 5 279.099609375 53.150390625 c 128,-1,70
 196.299804688 101.299804688 196.299804688 101.299804688 148.150390625 184.099609375 c 128,-1,71
 100 266.900390625 100 266.900390625 100 364.549804688 c 128,-1,72
 100 462.200195312 100 462.200195312 148.150390625 545.450195312 c 128,-1,73
 196.299804688 628.700195312 196.299804688 628.700195312 279.099609375 676.849609375 c 128,-1,62
 361.900390625 725 361.900390625 725 460 725 c 128,-1,63
460 706.099609375 m 128,-1,75
 367.299804688 706.099609375 367.299804688 706.099609375 289 660.650390625 c 128,-1,76
 210.700195312 615.200195312 210.700195312 615.200195312 164.799804688 536.450195312 c 128,-1,77
 118.900390625 457.700195312 118.900390625 457.700195312 118.900390625 365 c 128,-1,78
 118.900390625 272.299804688 118.900390625 272.299804688 164.799804688 193.549804688 c 128,-1,79
 210.700195312 114.799804688 210.700195312 114.799804688 289 69.349609375 c 128,-1,80
 367.299804688 23.900390625 367.299804688 23.900390625 460 23.900390625 c 128,-1,81
 552.700195312 23.900390625 552.700195312 23.900390625 631.450195312 69.349609375 c 128,-1,82
 710.200195312 114.799804688 710.200195312 114.799804688 755.650390625 193.549804688 c 128,-1,83
 801.099609375 272.299804688 801.099609375 272.299804688 801.099609375 365 c 128,-1,84
 801.099609375 457.700195312 801.099609375 457.700195312 755.650390625 536.450195312 c 128,-1,85
 710.200195312 615.200195312 710.200195312 615.200195312 631.450195312 660.650390625 c 128,-1,74
 552.700195312 706.099609375 552.700195312 706.099609375 460 706.099609375 c 128,-1,75
EndSplineSet
Validated: 1
EndChar

StartChar: six
Encoding: 54 54 10
Width: 920
Flags: W
LayerCount: 2
Fore
SplineSet
449.200195312 383.5 m 0,0,1
 417.700195312 383.5 417.700195312 383.5 408.25 363.700195312 c 128,-1,2
 398.799804688 343.900390625 398.799804688 343.900390625 398.799804688 301.599609375 c 2,3,-1
 398.799804688 261.099609375 l 1,4,-1
 398.799804688 219.700195312 l 2,5,6
 398.799804688 177.400390625 398.799804688 177.400390625 408.25 157.599609375 c 128,-1,7
 417.700195312 137.799804688 417.700195312 137.799804688 449.200195312 137.799804688 c 0,8,9
 463.599609375 137.799804688 463.599609375 137.799804688 473.950195312 141.400390625 c 128,-1,10
 484.299804688 145 484.299804688 145 491.049804688 154.450195312 c 128,-1,11
 497.799804688 163.900390625 497.799804688 163.900390625 501.400390625 172.450195312 c 128,-1,12
 505 181 505 181 506.349609375 198.549804688 c 128,-1,13
 507.700195312 216.099609375 507.700195312 216.099609375 508.150390625 226.900390625 c 128,-1,14
 508.599609375 237.700195312 508.599609375 237.700195312 508.599609375 260.650390625 c 128,-1,15
 508.599609375 283.599609375 508.599609375 283.599609375 508.150390625 294.400390625 c 128,-1,16
 507.700195312 305.200195312 507.700195312 305.200195312 506.349609375 322.75 c 128,-1,17
 505 340.299804688 505 340.299804688 501.400390625 348.849609375 c 128,-1,18
 497.799804688 357.400390625 497.799804688 357.400390625 491.049804688 366.849609375 c 128,-1,19
 484.299804688 376.299804688 484.299804688 376.299804688 473.950195312 379.900390625 c 128,-1,20
 463.599609375 383.5 463.599609375 383.5 449.200195312 383.5 c 0,0,1
398.799804688 399.700195312 m 1,21,22
 431.200195312 415 431.200195312 415 449.200195312 415 c 0,23,24
 536.5 415 536.5 415 587.799804688 375.849609375 c 128,-1,25
 639.099609375 336.700195312 639.099609375 336.700195312 639.099609375 260.650390625 c 128,-1,26
 639.099609375 184.599609375 639.099609375 184.599609375 587.799804688 145.450195312 c 128,-1,27
 536.5 106.299804688 536.5 106.299804688 449.200195312 106.299804688 c 0,28,29
 389.799804688 106.299804688 389.799804688 106.299804688 345.700195312 145.900390625 c 128,-1,30
 301.599609375 185.5 301.599609375 185.5 280.450195312 245.799804688 c 128,-1,31
 259.299804688 306.099609375 259.299804688 306.099609375 259.299804688 376.299804688 c 256,32,33
 259.299804688 446.5 259.299804688 446.5 284.950195312 507.700195312 c 128,-1,34
 310.599609375 568.900390625 310.599609375 568.900390625 360.099609375 607.599609375 c 128,-1,35
 409.599609375 646.299804688 409.599609375 646.299804688 471.700195312 646.299804688 c 256,36,37
 533.799804688 646.299804688 533.799804688 646.299804688 578.799804688 613.450195312 c 128,-1,38
 623.799804688 580.599609375 623.799804688 580.599609375 623.799804688 528.400390625 c 0,39,40
 623.799804688 502.299804688 623.799804688 502.299804688 605.799804688 484.299804688 c 128,-1,41
 587.799804688 466.299804688 587.799804688 466.299804688 561.700195312 466.299804688 c 128,-1,42
 535.599609375 466.299804688 535.599609375 466.299804688 517.150390625 484.299804688 c 128,-1,43
 498.700195312 502.299804688 498.700195312 502.299804688 498.700195312 528.400390625 c 0,44,45
 498.700195312 540.099609375 498.700195312 540.099609375 517.599609375 552.25 c 128,-1,46
 536.5 564.400390625 536.5 564.400390625 536.5 576.099609375 c 0,47,48
 536.5 595.900390625 536.5 595.900390625 517.599609375 605.349609375 c 128,-1,49
 498.700195312 614.799804688 498.700195312 614.799804688 471.700195312 614.799804688 c 0,50,51
 448.299804688 614.799804688 448.299804688 614.799804688 433 605.349609375 c 128,-1,52
 417.700195312 595.900390625 417.700195312 595.900390625 410.049804688 576.549804688 c 128,-1,53
 402.400390625 557.200195312 402.400390625 557.200195312 399.25 535.599609375 c 128,-1,54
 396.099609375 514 396.099609375 514 396.099609375 484.299804688 c 0,55,56
 396.099609375 456.400390625 396.099609375 456.400390625 398.799804688 399.700195312 c 1,21,22
460 725.5 m 128,-1,58
 558.099609375 725.5 558.099609375 725.5 640.900390625 677.349609375 c 128,-1,59
 723.700195312 629.200195312 723.700195312 629.200195312 771.849609375 545.950195312 c 128,-1,60
 820 462.700195312 820 462.700195312 820 365.049804688 c 128,-1,61
 820 267.400390625 820 267.400390625 771.849609375 184.599609375 c 128,-1,62
 723.700195312 101.799804688 723.700195312 101.799804688 640.900390625 53.650390625 c 128,-1,63
 558.099609375 5.5 558.099609375 5.5 460 5.5 c 128,-1,64
 361.900390625 5.5 361.900390625 5.5 279.099609375 53.650390625 c 128,-1,65
 196.299804688 101.799804688 196.299804688 101.799804688 148.150390625 184.599609375 c 128,-1,66
 100 267.400390625 100 267.400390625 100 365.049804688 c 128,-1,67
 100 462.700195312 100 462.700195312 148.150390625 545.950195312 c 128,-1,68
 196.299804688 629.200195312 196.299804688 629.200195312 279.099609375 677.349609375 c 128,-1,57
 361.900390625 725.5 361.900390625 725.5 460 725.5 c 128,-1,58
460 706.599609375 m 128,-1,70
 367.299804688 706.599609375 367.299804688 706.599609375 289 661.150390625 c 128,-1,71
 210.700195312 615.700195312 210.700195312 615.700195312 164.799804688 536.950195312 c 128,-1,72
 118.900390625 458.200195312 118.900390625 458.200195312 118.900390625 365.5 c 128,-1,73
 118.900390625 272.799804688 118.900390625 272.799804688 164.799804688 194.049804688 c 128,-1,74
 210.700195312 115.299804688 210.700195312 115.299804688 289 69.849609375 c 128,-1,75
 367.299804688 24.400390625 367.299804688 24.400390625 460 24.400390625 c 128,-1,76
 552.700195312 24.400390625 552.700195312 24.400390625 631.450195312 69.849609375 c 128,-1,77
 710.200195312 115.299804688 710.200195312 115.299804688 755.650390625 194.049804688 c 128,-1,78
 801.099609375 272.799804688 801.099609375 272.799804688 801.099609375 365.5 c 128,-1,79
 801.099609375 458.200195312 801.099609375 458.200195312 755.650390625 536.950195312 c 128,-1,80
 710.200195312 615.700195312 710.200195312 615.700195312 631.450195312 661.150390625 c 128,-1,69
 552.700195312 706.599609375 552.700195312 706.599609375 460 706.599609375 c 128,-1,70
EndSplineSet
Validated: 1
EndChar

StartChar: question
Encoding: 63 63 11
Width: 1000
Flags: W
LayerCount: 2
Fore
SplineSet
212 461 m 2,0,1
 212 589 212 589 316 646 c 1,2,3
 398 689 398 689 542 689 c 0,4,5
 614 689 614 689 677 659 c 0,6,7
 753 624 753 624 790 556 c 0,8,9
 812 515 812 515 812 467 c 0,10,11
 812 391 812 391 754 320 c 0,12,13
 712 268 712 268 660 240 c 0,14,15
 578 196 578 196 532 141 c 0,16,17
 516 121 516 121 516 105 c 0,18,19
 516 103 516 103 515 97 c 0,20,21
 514 93 514 93 514 91 c 0,22,23
 514 70 514 70 457 70 c 0,24,25
 432 70 432 70 429 75 c 0,26,27
 427 77 427 77 427 80 c 0,28,29
 427 81 427 81 428 82 c 1,30,31
 428 86 428 86 428 93 c 0,32,33
 428 158 428 158 488 217 c 0,34,35
 505 235 505 235 542 266 c 0,36,37
 580 297 580 297 598 315 c 0,38,39
 657 373 657 373 657 434 c 0,40,41
 657 465 657 465 636 495 c 0,42,43
 608 536 608 536 558 536 c 0,44,45
 527 536 527 536 501 515 c 0,46,47
 469 490 469 490 469 450 c 0,48,49
 469 438 469 438 475 426 c 1,50,51
 483 415 483 415 483 408 c 0,52,53
 483 392 483 392 453 392 c 2,54,-1
 243 392 l 2,55,56
 212 392 212 392 212 445 c 2,57,-1
 212 461 l 2,0,1
377 31 m 1,58,-1
 523 31 l 2,59,60
 536 31 536 31 572 -21 c 0,61,62
 610 -77 610 -77 610 -101 c 0,63,64
 610 -111 610 -111 605 -111 c 0,65,66
 604 -111 604 -111 603 -111 c 0,67,68
 597 -110 597 -110 593 -110 c 2,69,-1
 473 -110 l 2,70,71
 467 -110 467 -110 428 -60 c 0,72,73
 384 -5 384 -5 377 31 c 1,58,-1
EndSplineSet
Validated: 1
EndChar

StartChar: B
Encoding: 66 66 12
Width: 1000
Flags: W
LayerCount: 2
Fore
SplineSet
552 154 m 2,0,-1
 550 75 l 1,1,-1
 550 61 l 2,2,3
 550 20 550 20 557 -28 c 1,4,5
 608 22 608 22 637 67 c 128,-1,6
 666 112 666 112 666 164 c 0,7,8
 666 201 666 201 653 226.5 c 128,-1,9
 640 252 640 252 614 252 c 0,10,11
 584 252 584 252 569 223.5 c 128,-1,12
 554 195 554 195 552 154 c 2,0,-1
472 -95 m 2,13,-1
 468 51 l 1,14,15
 449 27 449 27 409 -13.5 c 128,-1,16
 369 -54 369 -54 356 -68 c 0,17,18
 347 -78 347 -78 336.5 -100.5 c 128,-1,19
 326 -123 326 -123 314 -136.5 c 128,-1,20
 302 -150 302 -150 284 -150 c 0,21,22
 264 -150 264 -150 251 -134 c 128,-1,23
 238 -118 238 -118 238 -95 c 2,24,-1
 215 737 l 1,25,26
 239 750 239 750 265.5 750 c 128,-1,27
 292 750 292 750 316 737 c 1,28,-1
 303 263 l 1,29,30
 319 294 319 294 348 311.5 c 128,-1,31
 377 329 377 329 412 329 c 0,32,33
 442 329 442 329 461 315 c 1,34,-1
 448 737 l 1,35,36
 471 750 471 750 498 750 c 0,37,38
 526 750 526 750 550 737 c 1,39,-1
 535 263 l 1,40,41
 560 295 560 295 596.5 312 c 128,-1,42
 633 329 633 329 673 329 c 0,43,44
 724 329 724 329 754.5 284 c 128,-1,45
 785 239 785 239 785 176 c 0,46,47
 785 145 785 145 774 117 c 128,-1,48
 763 89 763 89 741.5 63.5 c 128,-1,49
 720 38 720 38 700.5 19.5 c 128,-1,50
 681 1 681 1 649.5 -25.5 c 128,-1,51
 618 -52 618 -52 601 -68 c 1,52,53
 592 -78 592 -78 578 -101 c 128,-1,54
 564 -124 564 -124 550 -137 c 128,-1,55
 536 -150 536 -150 517 -150 c 0,56,57
 497 -150 497 -150 484.5 -134 c 128,-1,58
 472 -118 472 -118 472 -95 c 2,13,-1
300 154 m 2,59,-1
 297 75 l 1,60,-1
 297 60 l 2,61,62
 297 11 297 11 306 -37 c 1,63,64
 397 68 397 68 397 164 c 0,65,66
 397 252 397 252 353 252 c 0,67,68
 303 252 303 252 300 154 c 2,59,-1
EndSplineSet
Validated: 1
EndChar

StartChar: b
Encoding: 98 98 13
Width: 1000
Flags: W
LayerCount: 2
Fore
SplineSet
435 154 m 2,0,-1
 432 75 l 1,1,-1
 432 61 l 2,2,3
 432 20 432 20 439 -28 c 1,4,5
 468 -1 468 -1 483 15 c 128,-1,6
 498 31 498 31 518.5 57.5 c 128,-1,7
 539 84 539 84 548.5 110 c 128,-1,8
 558 136 558 136 558 164 c 0,9,10
 558 200 558 200 543.5 226 c 128,-1,11
 529 252 529 252 502 252 c 0,12,13
 471 252 471 252 453.5 223 c 128,-1,14
 436 194 436 194 435 154 c 2,0,-1
354 -95 m 2,15,-1
 331 737 l 1,16,17
 355 750 355 750 381.5 750 c 128,-1,18
 408 750 408 750 432 737 c 1,19,-1
 419 263 l 1,20,21
 476 329 476 329 561 329 c 0,22,23
 611 329 611 329 640 283 c 128,-1,24
 669 237 669 237 669 174 c 0,25,26
 669 144 669 144 658 116 c 128,-1,27
 647 88 647 88 625 63 c 128,-1,28
 603 38 603 38 583 19.5 c 128,-1,29
 563 1 563 1 531.5 -25.5 c 128,-1,30
 500 -52 500 -52 483 -68 c 1,31,32
 474 -78 474 -78 460.5 -100.5 c 128,-1,33
 447 -123 447 -123 433 -136.5 c 128,-1,34
 419 -150 419 -150 400 -150 c 0,35,36
 380 -150 380 -150 367 -134 c 128,-1,37
 354 -118 354 -118 354 -95 c 2,15,-1
EndSplineSet
Validated: 1
EndChar

StartChar: g
Encoding: 103 103 14
Width: 1000
Flags: W
LayerCount: 2
Fore
SplineSet
487 -67 m 5,0,1
 380 -62 380 -62 349 0 c 5,2,3
 339.2 22.4 339.2 22.4 339.2 44.31 c 0,4,5
 339.2 53.7 339.2 53.7 341 63 c 4,6,7
 347 94 347 94 367 122 c 4,8,9
 370 127 370 127 377 136.5 c 132,-1,10
 384 146 384 146 387.5 151.5 c 132,-1,11
 391 157 391 157 396 166 c 132,-1,12
 401 175 401 175 403 182.5 c 132,-1,13
 405 190 405 190 405.5 199 c 4,14,15
 405.571428571 200.285714286 405.571428571 200.285714286 405.571428571 201.571428571 c 0,16,17
 405.571428571 209.285714286 405.571428571 209.285714286 403 217 c 5,18,19
 382.452830189 257.471698113 382.452830189 257.471698113 382.452830189 285.53755785 c 0,20,21
 382.452830189 302.547169811 382.452830189 302.547169811 390 315 c 4,22,23
 412 351 412 351 472 354 c 5,24,25
 478.125 516.75 478.125 516.75 478.125 634.328125 c 0,26,27
 478.125 651.125 478.125 651.125 478 667 c 5,28,-1
 525 667 l 5,29,30
 525 610 525 610 528 496 c 132,-1,31
 531 382 531 382 532 355 c 5,32,33
 534.787878788 355.121212121 534.787878788 355.121212121 537.524334252 355.121212121 c 0,34,35
 579.939393939 355.121212121 579.939393939 355.121212121 610 326 c 4,36,37
 628.05 307.95 628.05 307.95 628.05 283.5825 c 0,38,39
 628.05 282.3 628.05 282.3 628 281 c 4,40,41
 627 255 627 255 611 233 c 5,42,43
 599.140350877 217.947368421 599.140350877 217.947368421 599.140350877 200.397968606 c 0,44,45
 599.140350877 179.473684211 599.140350877 179.473684211 616 155 c 4,46,47
 620 149 620 149 627 138.5 c 132,-1,48
 634 128 634 128 638 122 c 132,-1,49
 642 116 642 116 648.5 105 c 132,-1,50
 655 94 655 94 657.5 87.5 c 132,-1,51
 660 81 660 81 664 69.5 c 4,52,53
 667.2 60.3 667.2 60.3 667.2 53.66 c 0,54,55
 667.2 52 667.2 52 667 50.5 c 4,56,57
 666 43 666 43 666 30 c 5,58,59
 662 0 662 0 640.5 -23 c 132,-1,60
 619 -46 619 -46 589 -55 c 4,61,62
 551.857142857 -67.0714285714 551.857142857 -67.0714285714 495.744897959 -67.0714285714 c 0,63,64
 491.428571429 -67.0714285714 491.428571429 -67.0714285714 487 -67 c 5,0,1
550 42 m 5,65,66
 565 42 565 42 567 55 c 5,67,68
 567.076923077 56.0769230769 567.076923077 56.0769230769 567.076923077 57.0828402367 c 0,69,70
 567.076923077 69.1538461538 567.076923077 69.1538461538 556 71 c 4,71,72
 554.75 71.25 554.75 71.25 553.375 71.25 c 0,73,74
 549.25 71.25 549.25 71.25 544 69 c 5,75,76
 535 69 535 69 493.5 69 c 132,-1,77
 452 69 452 69 443 69 c 5,78,79
 441.285714286 63.5714285714 441.285714286 63.5714285714 441.285714286 59.2040816327 c 0,80,81
 441.285714286 48.2857142857 441.285714286 48.2857142857 452 44 c 4,82,83
 464.857142857 38.8571428571 464.857142857 38.8571428571 482.12244898 38.8571428571 c 0,84,85
 485 38.8571428571 485 38.8571428571 488 39 c 5,86,-1
 548 39 l 5,87,-1
 549 41 l 5,88,-1
 550 42 l 5,65,66
516 136 m 4,89,90
 534 140 534 140 544 156.5 c 4,91,92
 551.407407407 168.722222222 551.407407407 168.722222222 551.407407407 182.316186557 c 0,93,94
 551.407407407 187.074074074 551.407407407 187.074074074 550.5 192 c 4,95,96
 547 211 547 211 532 221 c 5,97,98
 520 230 520 230 506.875 230 c 128,-1,99
 493.75 230 493.75 230 479.5 221 c 4,100,101
 456.61971831 206.549295775 456.61971831 206.549295775 456.61971831 184.364411823 c 0,102,103
 456.61971831 178.915492958 456.61971831 178.915492958 458 173 c 4,104,105
 462 154 462 154 479.5 142.5 c 4,106,107
 491.696969697 134.484848485 491.696969697 134.484848485 504.622589532 134.484848485 c 0,108,109
 510.242424242 134.484848485 510.242424242 134.484848485 516 136 c 4,89,90
EndSplineSet
Validated: 1
EndChar

StartChar: n
Encoding: 110 110 15
Width: 1000
Flags: W
LayerCount: 2
Fore
SplineSet
433 -78 m 2,0,1
 401 -78 401 -78 375 -55 c 128,-1,2
 349 -32 349 -32 349 0 c 2,3,-1
 349 2 l 1,4,5
 351 58 351 58 397.5 97.5 c 128,-1,6
 444 137 444 137 500 137 c 0,7,8
 518 137 518 137 541 130 c 0,9,10
 547 129 547 129 558 120.5 c 128,-1,11
 569 112 569 112 571 112 c 0,12,13
 574 112 574 112 574 117 c 128,-1,14
 574 122 574 122 573 126 c 1,15,-1
 573 400 l 2,16,17
 573 584 573 584 574 675 c 1,18,19
 580 678 580 678 585 678 c 0,20,21
 593 678 593 678 595.5 665.5 c 128,-1,22
 598 653 598 653 599.5 636.5 c 128,-1,23
 601 620 601 620 607 614 c 1,24,25
 620 579 620 579 648 542 c 128,-1,26
 676 505 676 505 702.5 477.5 c 128,-1,27
 729 450 729 450 754.5 412 c 128,-1,28
 780 374 780 374 790 337 c 0,29,30
 796 313 796 313 796 288 c 0,31,32
 796 250 796 250 781 217 c 1,33,34
 776 202 776 202 768 202 c 128,-1,35
 760 202 760 202 752.5 216 c 128,-1,36
 745 230 745 230 745 244 c 0,37,38
 745 248 745 248 747 254 c 1,39,40
 748 261 748 261 748 274 c 0,41,42
 748 364 748 364 685 421 c 1,43,44
 638 465 638 465 594 490 c 1,45,46
 594 416 594 416 594 268 c 128,-1,47
 594 120 594 120 593 46 c 1,48,49
 586 -7 586 -7 540.5 -42.5 c 128,-1,50
 495 -78 495 -78 441 -78 c 2,51,-1
 433 -78 l 2,0,1
EndSplineSet
Validated: 1
EndChar

StartChar: v
Encoding: 118 118 16
Width: 1000
Flags: W
VStem: 380.789 209.587<107.8 244.701>
LayerCount: 2
Fore
SplineSet
204.142 34.2422 m 5,0,1
 226.18 46.2323 226.18 46.2323 283.552 67.7137 c 132,-1,2
 340.923 89.1951 340.923 89.1951 368.387 107.645 c 5,3,4
 372.479 112.606 372.479 112.606 375.563 118.447 c 132,-1,5
 378.647 124.289 378.647 124.289 380.789 129.253 c 132,-1,6
 382.932 134.218 382.932 134.218 383.981 141.639 c 132,-1,7
 385.03 149.061 385.03 149.061 385.798 153.497 c 4,8,9
 386.278704156 156.27294132 386.278704156 156.27294132 386.278704156 160.725666495 c 0,10,11
 386.278704156 163.386865526 386.278704156 163.386865526 386.107 166.647 c 4,12,13
 385.648 175.361 385.648 175.361 385.569 178.982 c 132,-1,14
 385.49 182.602 385.49 182.602 384.049 192.323 c 132,-1,15
 382.608 202.044 382.608 202.044 382.208 204.562 c 132,-1,16
 381.808 207.081 381.808 207.081 379.913 217.522 c 132,-1,17
 378.017 227.963 378.017 227.963 377.772 229.338 c 4,18,19
 374.255 237.328 374.255 237.328 365.837 257.872 c 132,-1,20
 357.418 278.416 357.418 278.416 352.468 289.361 c 132,-1,21
 347.519 300.307 347.519 300.307 338.352 315.564 c 132,-1,22
 329.184 330.821 329.184 330.821 319.124 341.624 c 5,23,24
 299.978878303 378.271166803 299.978878303 378.271166803 299.978878303 404.70186162 c 0,25,26
 299.978878303 425.419526772 299.978878303 425.419526772 311.742 439.86 c 5,27,28
 311.059594264 459.658886546 311.059594264 459.658886546 311.059594264 475.416008541 c 0,29,30
 311.059594264 489.030062843 311.059594264 489.030062843 311.569 499.627 c 4,31,32
 312.668 522.49 312.668 522.49 322.656 553.058 c 132,-1,33
 332.643 583.626 332.643 583.626 353.154 603.539 c 5,34,35
 399.094 661.257 399.094 661.257 478.905 664.073 c 4,36,37
 482.838322311 664.211831838 482.838322311 664.211831838 486.698844072 664.211831838 c 0,38,39
 561.171145646 664.211831838 561.171145646 664.211831838 608.552 612.548 c 5,40,41
 663.187798417 563.183671898 663.187798417 563.183671898 663.187798417 459.813808213 c 0,42,43
 663.187798417 453.469616299 663.187798417 453.469616299 662.982 446.922 c 5,44,45
 667.01 441.774 667.01 441.774 669.56 435.779 c 132,-1,46
 672.11 429.784 672.11 429.784 672.624 422.761 c 132,-1,47
 673.138 415.738 673.138 415.738 673.352 409.916 c 4,48,49
 673.3730529 409.34055406 673.3730529 409.34055406 673.3730529 408.741788736 c 0,50,51
 673.3730529 403.282623202 673.3730529 403.282623202 671.623 395.885 c 4,52,53
 669.682 387.675 669.682 387.675 668.703 382.942 c 132,-1,54
 667.724 378.209 667.724 378.209 664.472 369.729 c 132,-1,55
 661.219 361.249 661.219 361.249 660.193 358.521 c 132,-1,56
 659.166 355.794 659.166 355.794 655.748 347.959 c 132,-1,57
 652.329 340.125 652.329 340.125 652.313 340.091 c 4,58,59
 623.111 278.849 623.111 278.849 608.409 234.875 c 4,60,61
 594.831 196.074 594.831 196.074 590.376 178.856 c 4,62,63
 587.507932803 167.770646676 587.507932803 167.770646676 587.507932803 155.605209088 c 0,64,65
 587.507932803 148.873940029 587.507932803 148.873940029 588.386 141.812 c 4,66,67
 590.851 121.987 590.851 121.987 605.607 106.128 c 4,68,69
 613.806 97.5716 613.806 97.5716 621.201 91.7964 c 132,-1,70
 628.597 86.0211 628.597 86.0211 643.125 78.695 c 132,-1,71
 657.652 71.3688 657.652 71.3688 669.135 66.3773 c 132,-1,72
 680.618 61.3859 680.618 61.3859 711.568 48.1942 c 132,-1,73
 742.518 35.0026 742.518 35.0026 768.182 23.6992 c 5,74,75
 653.925 -43.4314 653.925 -43.4314 564.538 -61.9275 c 4,76,77
 524.782932287 -70.153637273 524.782932287 -70.153637273 486.398650087 -70.153637273 c 0,78,79
 438.478065251 -70.153637273 438.478065251 -70.153637273 392.694 -57.3323 c 4,80,81
 310.238 -34.2411 310.238 -34.2411 204.142 34.2422 c 5,0,1
519.402 300.029 m 4,82,83
 519.420740329 301.098122943 519.420740329 301.098122943 519.420740329 302.149984432 c 0,84,85
 519.420740329 321.584926572 519.420740329 321.584926572 513.023 335.127 c 4,86,87
 506.28 349.401 506.28 349.401 496.418 352.681 c 4,88,89
 491.48273722 354.321750954 491.48273722 354.321750954 486.534955357 354.321750954 c 128,-1,90
 481.594718144 354.321750954 481.594718144 354.321750954 476.642 352.686 c 4,91,92
 466.73 349.413 466.73 349.413 459.765 335.138 c 132,-1,93
 452.842748216 320.948576649 452.842748216 320.948576649 452.842748216 300.278558171 c 0,94,-1
 452.843 300.029 l 5,95,96
 452.602488051 296.282082888 452.602488051 296.282082888 452.602488051 292.77734838 c 0,97,98
 452.602488051 264.894045099 452.602488051 264.894045099 467.826 252.34 c 4,99,100
 476.435319788 245.240840408 476.435319788 245.240840408 485.177395476 245.240840408 c 128,-1,101
 493.836572703 245.240840408 493.836572703 245.240840408 502.626 252.206 c 4,102,103
 519.444504528 265.533027167 519.444504528 265.533027167 519.444504528 296.836236216 c 0,104,105
 519.444504528 298.409902975 519.444504528 298.409902975 519.402 300.029 c 4,82,83
EndSplineSet
Validated: 1
EndChar

StartChar: x
Encoding: 120 120 17
Width: 1000
Flags: W
LayerCount: 2
Fore
SplineSet
559 300 m 1,0,1
 604 255 604 255 705 255 c 0,2,3
 718 255 718 255 727 245.5 c 128,-1,4
 736 236 736 236 736 223 c 1,5,-1
 750 81 l 2,6,7
 750 79 750 79 750 78 c 0,8,9
 750 66 750 66 741.5 58 c 128,-1,10
 733 50 733 50 722 50 c 2,11,-1
 719 50 l 1,12,-1
 577 64 l 2,13,14
 563 66 563 66 554 74.5 c 128,-1,15
 545 83 545 83 545 95 c 0,16,17
 545 196 545 196 500 241 c 1,18,19
 455 196 455 196 455 95 c 0,20,21
 455 83 455 83 446 74.5 c 128,-1,22
 437 66 437 66 423 64 c 2,23,-1
 281 50 l 1,24,-1
 278 50 l 2,25,26
 267 50 267 50 258.5 58 c 128,-1,27
 250 66 250 66 250 78 c 0,28,29
 250 79 250 79 250 81 c 2,30,-1
 264 223 l 1,31,32
 264 236 264 236 273 245.5 c 128,-1,33
 282 255 282 255 295 255 c 0,34,35
 396 255 396 255 441 300 c 1,36,37
 396 345 396 345 295 345 c 0,38,39
 282 345 282 345 273 354.5 c 128,-1,40
 264 364 264 364 264 377 c 1,41,-1
 250 519 l 2,42,43
 250 521 250 521 250 522 c 0,44,45
 250 534 250 534 258.5 542 c 128,-1,46
 267 550 267 550 278 550 c 2,47,-1
 281 550 l 1,48,-1
 423 536 l 2,49,50
 437 534 437 534 446 525.5 c 128,-1,51
 455 517 455 517 455 505 c 0,52,53
 455 404 455 404 500 359 c 1,54,55
 545 404 545 404 545 505 c 0,56,57
 545 517 545 517 554 525.5 c 128,-1,58
 563 534 563 534 577 536 c 2,59,-1
 719 550 l 1,60,-1
 722 550 l 2,61,62
 733 550 733 550 741.5 542 c 128,-1,63
 750 534 750 534 750 522 c 0,64,65
 750 521 750 521 750 519 c 2,66,-1
 736 377 l 1,67,68
 736 364 736 364 727 354.5 c 128,-1,69
 718 345 718 345 705 345 c 0,70,71
 604 345 604 345 559 300 c 1,0,1
EndSplineSet
Validated: 1
EndChar

StartChar: uniE10E
Encoding: 57614 57614 18
Width: 1000
Flags: W
LayerCount: 2
Fore
SplineSet
246 386 m 1,0,-1
 177 358 l 1,1,-1
 177 214 l 1,2,-1
 246 242 l 1,3,-1
 246 386 l 1,0,-1
297 263 m 1,4,5
 307 267 307 267 313 267 c 0,6,7
 327 267 327 267 338 256.5 c 128,-1,8
 349 246 349 246 349 231 c 2,9,-1
 349 190 l 2,10,11
 349 179 349 179 342.5 170 c 128,-1,12
 336 161 336 161 327 157 c 2,13,-1
 297 144 l 1,14,-1
 297 0 l 2,15,16
 297 -11 297 -11 289.5 -18.5 c 128,-1,17
 282 -26 282 -26 271.5 -26 c 128,-1,18
 261 -26 261 -26 253.5 -18 c 128,-1,19
 246 -10 246 -10 246 0 c 2,20,-1
 246 124 l 1,21,-1
 177 95 l 1,22,-1
 177 -50 l 2,23,24
 177 -60 177 -60 169 -67.5 c 128,-1,25
 161 -75 161 -75 150.5 -75 c 128,-1,26
 140 -75 140 -75 133 -67.5 c 128,-1,27
 126 -60 126 -60 126 -50 c 2,28,-1
 126 74 l 1,29,30
 116 70 116 70 110 70 c 0,31,32
 95 70 95 70 84.5 80.5 c 128,-1,33
 74 91 74 91 74 106 c 2,34,-1
 74 148 l 2,35,36
 74 159 74 159 80 168 c 128,-1,37
 86 177 86 177 96 181 c 2,38,-1
 126 193 l 1,39,-1
 126 337 l 1,40,41
 116 333 116 333 110 333 c 0,42,43
 95 333 95 333 84.5 343.5 c 128,-1,44
 74 354 74 354 74 369 c 2,45,-1
 74 410 l 2,46,47
 74 421 74 421 80 430 c 128,-1,48
 86 439 86 439 96 443 c 2,49,-1
 126 456 l 1,50,-1
 126 600 l 2,51,52
 126 611 126 611 133 618.5 c 128,-1,53
 140 626 140 626 150.5 626 c 128,-1,54
 161 626 161 626 169 618 c 128,-1,55
 177 610 177 610 177 600 c 2,56,-1
 177 476 l 1,57,-1
 246 505 l 1,58,-1
 246 650 l 2,59,60
 246 660 246 660 253.5 667.5 c 128,-1,61
 261 675 261 675 271.5 675 c 128,-1,62
 282 675 282 675 289.5 667.5 c 128,-1,63
 297 660 297 660 297 650 c 2,64,-1
 297 526 l 1,65,66
 307 530 307 530 313 530 c 0,67,68
 327 530 327 530 338 519.5 c 128,-1,69
 349 509 349 509 349 494 c 2,70,-1
 349 452 l 2,71,72
 349 441 349 441 342.5 432 c 128,-1,73
 336 423 336 423 327 419 c 2,74,-1
 297 407 l 1,75,-1
 297 263 l 1,4,5
EndSplineSet
Validated: 1
EndChar

StartChar: uniE116
Encoding: 57622 57622 19
Width: 1000
Flags: W
LayerCount: 2
Fore
SplineSet
171 675 m 1,0,1
 184 683 184 683 203 683 c 0,2,3
 221 683 221 683 234 675 c 1,4,-1
 230 465 l 1,5,-1
 322 492 l 2,6,7
 324 493 324 493 328 493 c 0,8,9
 336 493 336 493 342.5 487 c 128,-1,10
 349 481 349 481 349 473 c 2,11,-1
 359 -75 l 1,12,13
 346 -83 346 -83 328 -83 c 128,-1,14
 310 -83 310 -83 297 -75 c 1,15,-1
 301 135 l 1,16,-1
 209 108 l 2,17,18
 207 107 207 107 203 107 c 0,19,20
 195 107 195 107 188.5 113 c 128,-1,21
 182 119 182 119 182 127 c 2,22,-1
 171 675 l 1,0,1
302 217 m 1,23,-1
 306 406 l 1,24,-1
 228 383 l 1,25,-1
 225 194 l 1,26,-1
 302 217 l 1,23,-1
EndSplineSet
Validated: 1
EndChar

StartChar: uniE11A
Encoding: 57626 57626 20
Width: 1000
Flags: W
LayerCount: 2
Fore
SplineSet
186 312 m 2,0,-1
 184 258 l 1,1,-1
 184 248 l 2,2,3
 184 219 184 219 189 186 c 1,4,5
 215 211 215 211 229 226 c 128,-1,6
 243 241 243 241 257.5 266 c 128,-1,7
 272 291 272 291 272 313 c 0,8,9
 272 316 272 316 272 320 c 0,10,11
 272 344 272 344 261.5 362 c 128,-1,12
 251 380 251 380 233 380 c 0,13,14
 211 380 211 380 199 360 c 128,-1,15
 187 340 187 340 186 312 c 2,0,-1
130 138 m 2,16,-1
 114 718 l 1,17,18
 132 728 132 728 149 728 c 128,-1,19
 166 728 166 728 184 718 c 1,20,-1
 175 388 l 1,21,22
 213 434 213 434 274 434 c 0,23,24
 309 434 309 434 329 402 c 128,-1,25
 349 370 349 370 349 326 c 0,26,27
 349 300 349 300 335 275 c 128,-1,28
 321 250 321 250 306 235 c 128,-1,29
 291 220 291 220 261.5 194.5 c 128,-1,30
 232 169 232 169 220 158 c 0,31,32
 213 151 213 151 203.5 135 c 128,-1,33
 194 119 194 119 184.5 109.5 c 128,-1,34
 175 100 175 100 162 100 c 0,35,36
 148 100 148 100 139 111.5 c 128,-1,37
 130 123 130 123 130 138 c 2,16,-1
EndSplineSet
Validated: 1
EndChar

StartChar: uniE123
Encoding: 57635 57635 21
Width: 1000
Flags: W
LayerCount: 2
Fore
SplineSet
288 312 m 6,0,-1
 286 258 l 5,1,-1
 286 248 l 6,2,3
 286 219 286 219 291 186 c 5,4,5
 367 260 367 260 367 320 c 132,-1,6
 367 380 367 380 331 380 c 4,7,8
 310 380 310 380 299.5 360.5 c 132,-1,9
 289 341 289 341 288 312 c 6,0,-1
232 138 m 6,10,-1
 229 240 l 5,11,12
 216 225 216 225 188.5 197.5 c 132,-1,13
 161 170 161 170 151 158 c 4,14,15
 145 151 145 151 137.5 135 c 132,-1,16
 130 119 130 119 122 109.5 c 132,-1,17
 114 100 114 100 101 100 c 4,18,19
 87 100 87 100 78 111.5 c 132,-1,20
 69 123 69 123 69 138 c 6,21,-1
 53 718 l 5,22,23
 71 728 71 728 88 728 c 132,-1,24
 105 728 105 728 123 718 c 5,25,-1
 114 388 l 5,26,27
 139 434 139 434 190 434 c 4,28,29
 213 434 213 434 224 424 c 5,30,-1
 215 718 l 5,31,32
 233 728 233 728 250 728 c 4,33,34
 268 728 268 728 286 718 c 5,35,-1
 276 388 l 5,36,37
 311 434 311 434 372 434 c 4,38,39
 408 434 408 434 429 402.5 c 132,-1,40
 450 371 450 371 450 328 c 4,41,42
 450 301 450 301 436 275.5 c 132,-1,43
 422 250 422 250 407.5 235.5 c 132,-1,44
 393 221 393 221 363 195 c 132,-1,45
 333 169 333 169 322 158 c 4,46,47
 315 151 315 151 305.5 135 c 132,-1,48
 296 119 296 119 286 109.5 c 132,-1,49
 276 100 276 100 263 100 c 4,50,51
 249 100 249 100 240.5 111 c 132,-1,52
 232 122 232 122 232 138 c 6,10,-1
112 312 m 6,53,-1
 110 258 l 5,54,-1
 110 246 l 6,55,56
 110 213 110 213 116 180 c 5,57,58
 180 253 180 253 180 320 c 4,59,60
 180 380 180 380 149 380 c 4,61,62
 114 380 114 380 112 312 c 6,53,-1
EndSplineSet
EndChar

StartChar: uniE125
Encoding: 57637 57637 22
Width: 1000
Flags: W
LayerCount: 2
Fore
SplineSet
240 300 m 1,0,1
 266 274 266 274 323 274 c 0,2,3
 330 274 330 274 335.5 269 c 128,-1,4
 341 264 341 264 341 256 c 2,5,-1
 349 175 l 2,6,7
 350 168 350 168 345 162.5 c 128,-1,8
 340 157 340 157 333 157 c 2,9,-1
 331 157 l 1,10,-1
 250 165 l 2,11,12
 232 167 232 167 232 183 c 0,13,14
 232 240 232 240 206 266 c 1,15,16
 180 240 180 240 180 183 c 0,17,18
 180 167 180 167 162 165 c 2,19,-1
 81 157 l 1,20,-1
 79 157 l 2,21,22
 72 157 72 157 67 162.5 c 128,-1,23
 62 168 62 168 63 175 c 2,24,-1
 71 256 l 2,25,26
 71 264 71 264 76.5 269 c 128,-1,27
 82 274 82 274 89 274 c 0,28,29
 146 274 146 274 172 300 c 1,30,31
 146 326 146 326 89 326 c 0,32,33
 82 326 82 326 76.5 331 c 128,-1,34
 71 336 71 336 71 344 c 2,35,-1
 63 425 l 2,36,37
 62 432 62 432 67 437.5 c 128,-1,38
 72 443 72 443 79 443 c 2,39,-1
 81 443 l 1,40,-1
 162 435 l 2,41,42
 180 433 180 433 180 417 c 0,43,44
 180 360 180 360 206 334 c 1,45,46
 232 360 232 360 232 417 c 0,47,48
 232 433 232 433 250 435 c 2,49,-1
 331 443 l 1,50,-1
 333 443 l 2,51,52
 340 443 340 443 345 437.5 c 128,-1,53
 350 432 350 432 349 425 c 2,54,-1
 341 344 l 2,55,56
 341 336 341 336 335.5 331 c 128,-1,57
 330 326 330 326 323 326 c 0,58,59
 266 326 266 326 240 300 c 1,0,1
EndSplineSet
Validated: 1
EndChar

StartChar: uniE1A7
Encoding: 57767 57767 23
Width: 1000
Flags: W
LayerCount: 2
Fore
SplineSet
117 411 m 1,0,1
 94 490 94 490 94 570 c 0,2,3
 94 608 94 608 111 642 c 128,-1,4
 128 676 128 676 158 699 c 0,5,6
 159 700 159 700 161 700 c 128,-1,7
 163 700 163 700 164 699 c 0,8,9
 189 670 189 670 207 622 c 128,-1,10
 225 574 225 574 225 537 c 0,11,12
 225 494 225 494 204 457 c 128,-1,13
 183 420 183 420 145 377 c 1,14,15
 157 337 157 337 170 284 c 1,16,-1
 173 284 l 2,17,18
 220 284 220 284 250 251 c 128,-1,19
 280 218 280 218 280 175 c 0,20,21
 280 121 280 121 235 87 c 0,22,23
 219 76 219 76 200 70 c 1,24,25
 200 68 200 68 200 62 c 128,-1,26
 200 56 200 56 200 54 c 0,27,28
 200 21 200 21 199 -4 c 0,29,30
 196 -44 196 -44 170.5 -72 c 128,-1,31
 145 -100 145 -100 108 -100 c 0,32,33
 73 -100 73 -100 48 -74.5 c 128,-1,34
 23 -49 23 -49 23 -14 c 0,35,36
 23 4 23 4 37.5 17 c 128,-1,37
 52 30 52 30 71 30 c 0,38,39
 88 30 88 30 99.5 17 c 128,-1,40
 111 4 111 4 111 -14 c 0,41,42
 111 -30 111 -30 99 -42 c 128,-1,43
 87 -54 87 -54 71 -54 c 0,44,45
 63 -54 63 -54 55 -50 c 1,46,47
 73 -83 73 -83 109 -83 c 0,48,49
 139 -83 139 -83 159.5 -59 c 128,-1,50
 180 -35 180 -35 182 -2 c 0,51,52
 183 23 183 23 183 54 c 2,53,-1
 183 67 l 1,54,55
 167 65 167 65 150 65 c 0,56,57
 91 65 91 65 50.5 111 c 128,-1,58
 10 157 10 157 10 221 c 0,59,60
 10 235 10 235 13 249.5 c 128,-1,61
 16 264 16 264 19 274.5 c 128,-1,62
 22 285 22 285 31 300 c 128,-1,63
 40 315 40 315 44 322.5 c 128,-1,64
 48 330 48 330 61.5 346.5 c 128,-1,65
 75 363 75 363 78.5 367.5 c 128,-1,66
 82 372 82 372 98 390 c 128,-1,67
 114 408 114 408 117 411 c 1,0,1
199 87 m 1,68,69
 222 94 222 94 237 114.5 c 128,-1,70
 252 135 252 135 252 158 c 0,71,72
 252 188 252 188 232.5 211.5 c 128,-1,73
 213 235 213 235 181 239 c 1,74,75
 197 162 197 162 199 87 c 1,68,69
151 81 m 0,76,77
 170 81 170 81 183 83 c 1,78,79
 181 158 181 158 163 240 c 1,80,81
 137 239 137 239 121.5 223.5 c 128,-1,82
 106 208 106 208 106 188 c 0,83,84
 106 155 106 155 141 135 c 1,85,86
 144 132 144 132 144 129 c 0,87,88
 144 121 144 121 135 121 c 0,89,90
 134 121 134 121 132 121 c 0,91,92
 83 148 83 148 83 199 c 0,93,94
 83 228 83 228 102 252 c 128,-1,95
 121 276 121 276 154 282 c 1,96,97
 150 297 150 297 131 362 c 1,98,99
 108 336 108 336 96 321 c 128,-1,100
 84 306 84 306 68.5 282.5 c 128,-1,101
 53 259 53 259 46 236 c 128,-1,102
 39 213 39 213 39 188 c 0,103,104
 39 145 39 145 73 113 c 128,-1,105
 107 81 107 81 151 81 c 0,76,77
181 640 m 1,106,107
 150 623 150 623 131.5 592 c 128,-1,108
 113 561 113 561 113 525 c 0,109,110
 113 485 113 485 130 426 c 1,111,112
 162 464 162 464 179 498 c 128,-1,113
 196 532 196 532 196 570 c 0,114,115
 196 606 196 606 181 640 c 1,106,107
149 -140 m 1,116,117
 156 -145 156 -145 158 -148 c 0,118,119
 163 -154 163 -154 163 -161 c 0,120,121
 163 -174 163 -174 153 -182 c 128,-1,122
 143 -190 143 -190 129 -190 c 0,123,124
 102 -190 102 -190 102 -170 c 0,125,126
 102 -152 102 -152 125 -143 c 1,127,128
 116 -136 116 -136 116 -125 c 0,129,130
 116 -113 116 -113 124.5 -105 c 128,-1,131
 133 -97 133 -97 145 -97 c 0,132,133
 155 -97 155 -97 162 -103 c 128,-1,134
 169 -109 169 -109 169 -117 c 0,135,136
 169 -128 169 -128 160 -134 c 0,137,138
 157 -137 157 -137 149 -140 c 1,116,117
144 -137 m 0,139,140
 145 -137 145 -137 146 -136 c 0,141,142
 159 -130 159 -130 159 -117 c 0,143,144
 159 -111 159 -111 155 -107 c 128,-1,145
 151 -103 151 -103 144 -103 c 0,146,147
 136 -103 136 -103 131 -107.5 c 128,-1,148
 126 -112 126 -112 126 -119 c 0,149,150
 126 -129 126 -129 144 -137 c 0,139,140
130 -146 m 1,151,152
 129 -147 129 -147 128 -147 c 0,153,154
 112 -154 112 -154 112 -168 c 0,155,156
 112 -184 112 -184 130 -184 c 0,157,158
 139 -184 139 -184 145.5 -179 c 128,-1,159
 152 -174 152 -174 152 -167 c 0,160,161
 152 -158 152 -158 142 -152 c 0,162,163
 138 -150 138 -150 130 -146 c 1,151,152
EndSplineSet
Validated: 1
EndChar

StartChar: o
Encoding: 111 111 24
Width: 1000
VWidth: 0
VStem: 500.612 20.5533<124.516 221.184 391.052 481.877 615.651 669.485> 674.002 43.859<204.498 369.194>
LayerCount: 2
Fore
SplineSet
755.062 691.375 m 4,0,1
 755.43403492 691.382438549 755.43403492 691.382438549 755.802621873 691.382438549 c 4,2,3
 772.578654654 691.382438549 772.578654654 691.382438549 782.212 675.973 c 4,4,5
 787.676941123 667.230981728 787.676941123 667.230981728 787.676941123 658.597448639 c 4,6,7
 787.676941123 651.67939612 787.676941123 651.67939612 784.168 644.831 c 5,8,9
 733.666104742 574.346621851 733.666104742 574.346621851 648.764227531 456.805608478 c 5,10,11
 666.700520074 435.716521441 666.700520074 435.716521441 684.222 409.028 c 4,12,13
 708.157 372.571 708.157 372.571 717.861 336.559 c 5,14,15
 724.101777904 308.849279533 724.101777904 308.849279533 724.101777904 284.764637593 c 4,16,17
 724.101777904 236.585063881 724.101777904 236.585063881 699.128 202.912 c 5,18,19
 686.046 205.322 686.046 205.322 680.04 215.939 c 132,-1,20
 674.033 226.557 674.033 226.557 674.002 237.763 c 4,21,22
 674.00103996 238.110038961 674.00103996 238.110038961 674.00103996 238.462175437 c 0,23,24
 674.00103996 249.480639361 674.00103996 249.480639361 674.941 265.49 c 4,25,26
 675.498405213 274.983702607 675.498405213 274.983702607 675.498405213 281.351246947 c 0,27,28
 675.498405213 286.064542654 675.498405213 286.064542654 675.193 289.065 c 4,29,30
 672.829 333.244 672.829 333.244 650.184 372.924 c 4,31,32
 636.876939023 396.241473154 636.876939023 396.241473154 618.748198072 415.266984666 c 5,33,34
 585.796378441 369.682595217 585.796378441 369.682595217 548.312 317.898 c 4,35,36
 544.214836248 312.237756106 544.214836248 312.237756106 540.170319769 306.649440222 c 5,37,38
 628.319184683 184.590622139 628.319184683 184.590622139 738.403 31.8027 c 4,39,40
 741.916 25.4812 741.916 25.4812 762.592 -1.33647 c 132,-1,41
 783.267 -28.1541 783.267 -28.1541 786.656 -45.7969 c 5,42,43
 786.975102775 -48.2344523897 786.975102775 -48.2344523897 786.975102775 -50.5196852839 c 0,44,45
 786.975102775 -68.4798212737 786.975102775 -68.4798212737 767.265 -77.0316 c 4,46,47
 759.075253743 -80.5849870696 759.075253743 -80.5849870696 751.986888453 -80.5849870696 c 4,48,49
 739.845195194 -80.5849870696 739.845195194 -80.5849870696 730.935 -70.1592 c 5,50,51
 685.382840189 -6.31207749685 685.382840189 -6.31207749685 521.165349841 221.184391914 c 5,52,53
 521.167240613 214.550828065 521.167240613 214.550828065 521.167240613 208.101794593 c 4,54,55
 521.167240613 102.161168709 521.167240613 102.161168709 520.657 46.0176 c 5,56,57
 513.3685 -8.77419 513.3685 -8.77419 465.32 -44.7187 c 4,58,59
 420.52802172 -78.2218060282 420.52802172 -78.2218060282 368.73635655 -78.2218060282 c 4,60,61
 364.962262918 -78.2218060282 364.962262918 -78.2218060282 361.151 -78.0439 c 5,62,63
 360.169825317 -78.0651017962 360.169825317 -78.0651017962 359.195951879 -78.0651017962 c 4,64,65
 321.691303379 -78.0651017962 321.691303379 -78.0651017962 295.015 -46.6211 c 4,66,67
 292.500453333 -43.6570349325 292.500453333 -43.6570349325 290.313632881 -40.6511527361 c 5,68,69
 289.230499544 -42.3153469792 289.230499544 -42.3153469792 288.094 -44.0725 c 4,70,71
 271 -70.5018 271 -70.5018 256.003 -78.3057 c 5,72,73
 249.90658547 -80.7112813675 249.90658547 -80.7112813675 244.276185945 -80.7112813675 c 4,74,75
 231.163875735 -80.7112813675 231.163875735 -80.7112813675 220.579 -67.6646 c 4,76,77
 212.108439408 -57.223920259 212.108439408 -57.223920259 212.108439408 -46.8838215687 c 4,78,79
 212.108439408 -38.7545767623 212.108439408 -38.7545767623 217.344 -30.6875 c 4,80,81
 248.198832333 12.7612189376 248.198832333 12.7612189376 459.843103763 306.113457946 c 5,82,83
 358.720931865 446.130490406 358.720931865 446.130490406 222.164 635.015 c 5,84,85
 212.428207568 644.204525472 212.428207568 644.204525472 212.428207568 656.348787218 c 4,86,87
 212.428207568 662.856643125 212.428207568 662.856643125 215.224 670.213 c 4,88,89
 223.207465268 691.219287496 223.207465268 691.219287496 243.785570728 691.219287496 c 0,90,-1
 243.938 691.219 l 4,91,92
 244.814900412 691.26011265 244.814900412 691.26011265 245.676461309 691.26011265 c 0,93,94
 258.373498625 691.26011265 258.373498625 691.26011265 267.739 682.331 c 5,95,96
 346.267208637 574.971427984 346.267208637 574.971427984 500.175305251 362.010685942 c 5,97,98
 500.429597884 362.363081809 500.429597884 362.363081809 500.684114971 362.715787937 c 4,99,100
 500.676465557 383.04375777 500.676465557 383.04375777 500.666 404.995 c 4,101,102
 500.6524682 433.093917456 500.6524682 433.093917456 500.6524682 458.532984806 c 4,103,104
 500.6524682 621.088625169 500.6524682 621.088625169 501.205 675.037 c 5,105,106
 504.883426252 675.916444881 504.883426252 675.916444881 508.006919928 675.916444881 c 0,107,108
 516.277167835 675.916444881 516.277167835 675.916444881 520.657 669.751 c 4,109,110
 526.692 661.258 526.692 661.258 526.95 648.463 c 132,-1,111
 527.208 635.669 527.208 635.669 530.144 620.892 c 132,-1,112
 533.079 606.114 533.079 606.114 540.474 599.897 c 5,113,114
 555.177 568.311 555.177 568.311 583.025 532.905 c 4,115,116
 593.983664316 518.971633074 593.983664316 518.971633074 604.456201637 506.493859519 c 5,117,118
 650.354170326 570.075767047 650.354170326 570.075767047 701.621 641.079 c 4,119,120
 706.333 646.145 706.333 646.145 715.335 660.681 c 132,-1,121
 724.337 675.217 724.337 675.217 733.373 683.212 c 132,-1,122
 742.408 691.207 742.408 691.207 755.062 691.375 c 4,0,1
499.775296673 250.813803967 m 5,123,124
 454.891964402 188.748325373 454.891964402 188.748325373 417.461051848 136.864530641 c 5,125,126
 422.043410962 137.186233667 422.043410962 137.186233667 426.613413864 137.186233667 c 4,127,128
 450.812434902 137.186233667 450.812434902 137.186233667 474.665 128.166 c 5,129,130
 488.260037121 115.318177226 488.260037121 115.318177226 496.407357187 115.318177226 c 4,131,132
 501.835414409 115.318177226 501.835414409 115.318177226 501.835414409 124.345694032 c 0,133,134
 501.835414409 128.631503823 501.835414409 128.631503823 500.612 134.952 c 5,135,136
 500.697222862 169.705660144 500.697222862 169.705660144 500.704259559 249.527128142 c 4,137,138
 500.240212764 250.169866638 500.240212764 250.169866638 499.775296673 250.813803967 c 5,123,124
521.132439066 391.051559149 m 5,139,140
 544.28434842 423.132420222 544.28434842 423.132420222 569.170615857 457.610667961 c 4,141,142
 568.9577583 457.792455842 568.9577583 457.792455842 568.743 457.976 c 4,143,144
 551.577 472.648 551.577 472.648 539.51 479.832 c 4,145,146
 531.768499018 484.440845865 531.768499018 484.440845865 526.535975031 484.440845865 c 4,147,148
 523.612345955 484.440845865 523.612345955 484.440845865 521.472 483.002 c 5,149,150
 521.214947488 447.16867575 521.214947488 447.16867575 521.132439066 391.051559149 c 5,139,140
EndSplineSet
Validated: 1
EndChar

StartChar: I
Encoding: 73 73 25
Width: 327
Flags: W
HStem: -112 19<16 80.8828 249.55 313> 531 19<16 77.4453 250.954 313>
VStem: 113 102<-73.975 511.006>
LayerCount: 2
Fore
SplineSet
113 -3 m 2,0,-1
 113 441 l 2,1,2
 113 496 113 496 96.5 511.5 c 128,-1,3
 80 527 80 527 16 531 c 1,4,-1
 16 550 l 1,5,-1
 313 550 l 1,6,-1
 313 531 l 1,7,8
 250 528 250 528 232.5 512 c 128,-1,9
 215 496 215 496 215 441 c 2,10,-1
 215 -3 l 2,11,12
 215 -58 215 -58 233 -74.5 c 128,-1,13
 251 -91 251 -91 313 -93 c 1,14,-1
 313 -112 l 1,15,-1
 16 -112 l 1,16,-1
 16 -93 l 1,17,18
 79 -91 79 -91 96 -75 c 128,-1,19
 113 -59 113 -59 113 -3 c 2,0,-1
EndSplineSet
Validated: 1
EndChar

StartChar: V
Encoding: 86 86 26
Width: 701
Flags: W
LayerCount: 2
Fore
SplineSet
686.5 557 m 5,0,-1
 686.5 538 l 5,1,2
 649.5 536 649.5 536 634 520 c 132,-1,3
 618.5 504 618.5 504 594.5 445 c 6,4,-1
 372.5 -116 l 5,5,-1
 357.5 -116 l 5,6,-1
 111.5 433 l 6,7,8
 82.5 499 82.5 499 63 517.5 c 132,-1,9
 43.5 536 43.5 536 5.5 538 c 5,10,-1
 5.5 557 l 5,11,-1
 271.5 557 l 5,12,-1
 271.5 538 l 5,13,14
 243.5 536 243.5 536 242.5 536 c 4,15,16
 196.5 533 196.5 533 196.5 505 c 4,17,18
 196.5 485 196.5 485 237.5 394 c 6,19,-1
 388.5 56 l 5,20,-1
 535.5 423 l 6,21,22
 554.5 471 554.5 471 554.5 496 c 4,23,24
 554.5 517 554.5 517 538.5 526.5 c 132,-1,25
 522.5 536 522.5 536 481.5 538 c 5,26,-1
 481.5 557 l 5,27,-1
 686.5 557 l 5,0,-1
EndSplineSet
Validated: 1
EndChar

StartChar: X
Encoding: 88 88 27
Width: 714
Flags: W
LayerCount: 2
Fore
SplineSet
702 535 m 5,0,-1
 702 516 l 5,1,2
 653 513 653 513 626.5 496.5 c 132,-1,3
 600 480 600 480 553 422 c 6,4,-1
 407 240 l 5,5,-1
 599 -34 l 6,6,7
 629 -77 629 -77 649 -90 c 132,-1,8
 669 -103 669 -103 710 -108 c 5,9,-1
 710 -127 l 5,10,-1
 413 -127 l 5,11,-1
 413 -108 l 5,12,13
 454 -104 454 -104 472 -97.5 c 132,-1,14
 490 -91 490 -91 490 -77 c 4,15,16
 490 -55 490 -55 439 21 c 6,17,-1
 344 161 l 5,18,-1
 225 13 l 6,19,20
 173 -52 173 -52 173 -73 c 4,21,22
 173 -90 173 -90 189 -97.5 c 132,-1,23
 205 -105 205 -105 249 -108 c 5,24,-1
 249 -127 l 5,25,-1
 16 -127 l 5,26,-1
 16 -108 l 5,27,28
 55 -105 55 -105 76 -89 c 132,-1,29
 97 -73 97 -73 161 6 c 6,30,-1
 318 199 l 5,31,-1
 209 359 l 6,32,33
 139 462 139 462 108.5 488 c 132,-1,34
 78 514 78 514 28 516 c 5,35,-1
 28 535 l 5,36,-1
 330 535 l 5,37,-1
 330 516 l 5,38,-1
 302 515 l 6,39,40
 254 514 254 514 254 486 c 4,41,42
 254 454 254 454 339 336 c 6,43,-1
 381 277 l 5,44,-1
 494 415 l 6,45,46
 534 465 534 465 534 484 c 4,47,48
 534 501 534 501 519.5 507.5 c 132,-1,49
 505 514 505 514 464 516 c 5,50,-1
 464 535 l 5,51,-1
 702 535 l 5,0,-1
EndSplineSet
Validated: 1
EndChar

StartChar: exclam
Encoding: 33 33 28
Width: 381
Flags: W
LayerCount: 2
Fore
SplineSet
12.1191 -24.6709 m 132,-1,1
 12.1191 0.849609 12.1191 0.849609 36.2168 22.5049 c 132,-1,2
 60.3145 44.1602 60.3145 44.1602 101.781 56.7451 c 132,-1,3
 143.249 69.3291 143.249 69.3291 192.119 69.3291 c 4,4,5
 266.639 69.3291 266.639 69.3291 319.379 41.7871 c 132,-1,6
 372.119 14.2451 372.119 14.2451 372.119 -24.6709 c 132,-1,7
 372.119 -63.5869 372.119 -63.5869 319.379 -91.1289 c 132,-1,8
 266.639 -118.671 266.639 -118.671 192.119 -118.671 c 4,9,10
 143.249 -118.671 143.249 -118.671 101.781 -106.087 c 132,-1,11
 60.3145 -93.5029 60.3145 -93.5029 36.2168 -71.8477 c 132,-1,0
 12.1191 -50.1924 12.1191 -50.1924 12.1191 -24.6709 c 132,-1,1
17 607 m 0,12,13
 17 614 17 614 113 655 c 0,14,15
 220 701 220 701 267 703 c 1,16,-1
 267 188 l 2,17,18
 267 144 267 144 245 136 c 0,19,20
 234 131 234 131 218 131 c 2,21,-1
 153 131 l 2,22,23
 113 131 113 131 92 138 c 0,24,25
 80 141 80 141 80 148 c 1,26,27
 80 146 80 146 90.5 176 c 128,-1,28
 101 206 101 206 101 244 c 2,29,-1
 101 265 l 2,30,31
 101 446 101 446 59 524 c 1,32,33
 46 543 46 543 32 563 c 1,34,35
 17 587 17 587 17 607 c 0,12,13
EndSplineSet
Validated: 1
EndChar

StartChar: uniE172
Encoding: 57714 57714 29
Width: 1000
Flags: W
LayerCount: 2
Fore
SplineSet
117 411 m 1,0,1
 94 490 94 490 94 570 c 0,2,3
 94 608 94 608 111 642 c 128,-1,4
 128 676 128 676 158 699 c 0,5,6
 159 700 159 700 161 700 c 128,-1,7
 163 700 163 700 164 699 c 0,8,9
 189 670 189 670 207 622 c 128,-1,10
 225 574 225 574 225 537 c 0,11,12
 225 494 225 494 204 457 c 128,-1,13
 183 420 183 420 145 377 c 1,14,15
 157 337 157 337 170 284 c 1,16,-1
 173 284 l 2,17,18
 220 284 220 284 250 251 c 128,-1,19
 280 218 280 218 280 175 c 0,20,21
 280 121 280 121 235 87 c 0,22,23
 219 76 219 76 200 70 c 1,24,25
 200 68 200 68 200 62 c 128,-1,26
 200 56 200 56 200 54 c 0,27,28
 200 21 200 21 199 -4 c 0,29,30
 196 -44 196 -44 170.5 -72 c 128,-1,31
 145 -100 145 -100 108 -100 c 0,32,33
 73 -100 73 -100 48 -74.5 c 128,-1,34
 23 -49 23 -49 23 -14 c 0,35,36
 23 4 23 4 37.5 17 c 128,-1,37
 52 30 52 30 71 30 c 0,38,39
 88 30 88 30 99.5 17 c 128,-1,40
 111 4 111 4 111 -14 c 0,41,42
 111 -30 111 -30 99 -42 c 128,-1,43
 87 -54 87 -54 71 -54 c 0,44,45
 63 -54 63 -54 55 -50 c 1,46,47
 73 -83 73 -83 109 -83 c 0,48,49
 139 -83 139 -83 159.5 -59 c 128,-1,50
 180 -35 180 -35 182 -2 c 0,51,52
 183 23 183 23 183 54 c 2,53,-1
 183 67 l 1,54,55
 167 65 167 65 150 65 c 0,56,57
 91 65 91 65 50.5 111 c 128,-1,58
 10 157 10 157 10 221 c 0,59,60
 10 235 10 235 13 249.5 c 128,-1,61
 16 264 16 264 19 274.5 c 128,-1,62
 22 285 22 285 31 300 c 128,-1,63
 40 315 40 315 44 322.5 c 128,-1,64
 48 330 48 330 61.5 346.5 c 128,-1,65
 75 363 75 363 78.5 367.5 c 128,-1,66
 82 372 82 372 98 390 c 128,-1,67
 114 408 114 408 117 411 c 1,0,1
199 87 m 1,68,69
 222 94 222 94 237 114.5 c 128,-1,70
 252 135 252 135 252 158 c 0,71,72
 252 188 252 188 232.5 211.5 c 128,-1,73
 213 235 213 235 181 239 c 1,74,75
 197 162 197 162 199 87 c 1,68,69
151 81 m 0,76,77
 170 81 170 81 183 83 c 1,78,79
 181 158 181 158 163 240 c 1,80,81
 137 239 137 239 121.5 223.5 c 128,-1,82
 106 208 106 208 106 188 c 0,83,84
 106 155 106 155 141 135 c 1,85,86
 144 132 144 132 144 129 c 0,87,88
 144 121 144 121 135 121 c 0,89,90
 134 121 134 121 132 121 c 0,91,92
 83 148 83 148 83 199 c 0,93,94
 83 228 83 228 102 252 c 128,-1,95
 121 276 121 276 154 282 c 1,96,97
 150 297 150 297 131 362 c 1,98,99
 108 336 108 336 96 321 c 128,-1,100
 84 306 84 306 68.5 282.5 c 128,-1,101
 53 259 53 259 46 236 c 128,-1,102
 39 213 39 213 39 188 c 0,103,104
 39 145 39 145 73 113 c 128,-1,105
 107 81 107 81 151 81 c 0,76,77
181 640 m 1,106,107
 150 623 150 623 131.5 592 c 128,-1,108
 113 561 113 561 113 525 c 0,109,110
 113 485 113 485 130 426 c 1,111,112
 162 464 162 464 179 498 c 128,-1,113
 196 532 196 532 196 570 c 0,114,115
 196 606 196 606 181 640 c 1,106,107
EndSplineSet
Validated: 1
EndChar

StartChar: uniE170
Encoding: 57712 57712 30
Width: 673
Flags: W
HStem: 312.869 42.9668<252.082 282.015> 350.36 86.7744<44.0245 87.4768> 418.179 42.9658<252.082 282.015> 486.841 10.9512<83.2125 133.754>
VStem: 10.9365 89.3018<363.885 424.373> 180.694 51.3916<311.507 457.188> 245.565 42.9658<319.386 349.319 424.695 454.628>
LayerCount: 2
Fore
SplineSet
245.565 334.353 m 0,0,1
 245.565 343.199 245.565 343.199 251.884 349.517 c 128,-1,2
 258.202 355.836 258.202 355.836 267.048 355.836 c 128,-1,3
 275.894 355.836 275.894 355.836 282.213 349.517 c 128,-1,4
 288.531 343.199 288.531 343.199 288.531 334.353 c 128,-1,5
 288.531 325.506 288.531 325.506 282.213 319.188 c 128,-1,6
 275.894 312.869 275.894 312.869 267.048 312.869 c 0,7,8
 261.249 312.869 261.249 312.869 256.296 315.758 c 128,-1,9
 251.343 318.647 251.343 318.647 248.454 323.6 c 128,-1,10
 245.565 328.553 245.565 328.553 245.565 334.353 c 0,0,1
245.565 439.661 m 128,-1,12
 245.565 448.507 245.565 448.507 251.884 454.826 c 128,-1,13
 258.202 461.145 258.202 461.145 267.048 461.145 c 128,-1,14
 275.894 461.145 275.894 461.145 282.213 454.826 c 128,-1,15
 288.531 448.507 288.531 448.507 288.531 439.661 c 0,16,17
 288.531 433.862 288.531 433.862 285.642 428.91 c 128,-1,18
 282.753 423.957 282.753 423.957 277.8 421.068 c 128,-1,19
 272.847 418.179 272.847 418.179 267.048 418.179 c 0,20,21
 258.202 418.179 258.202 418.179 251.884 424.497 c 128,-1,11
 245.565 430.815 245.565 430.815 245.565 439.661 c 128,-1,12
108.663 497.792 m 0,22,23
 164.428 497.792 164.428 497.792 198.257 470.092 c 128,-1,24
 232.086 442.391 232.086 442.391 232.086 392.062 c 0,25,26
 232.086 352.4 232.086 352.4 214.033 318.076 c 128,-1,27
 195.981 283.751 195.981 283.751 162.449 256.984 c 128,-1,28
 128.916 230.216 128.916 230.216 94.5733 211.029 c 128,-1,29
 60.2302 191.842 60.2302 191.842 14.7275 172.599 c 0,30,31
 13.0443 170.914 13.0443 170.914 10.9365 170.914 c 0,32,33
 5.46094 170.914 5.46094 170.914 5.46094 176.39 c 0,34,35
 5.46094 178.496 5.46094 178.496 7.14551 180.181 c 0,36,37
 44.6294 202.077 44.6294 202.077 71.089 220.914 c 128,-1,38
 97.5486 239.75 97.5486 239.75 124.899 265.819 c 128,-1,39
 152.25 291.887 152.25 291.887 166.472 322.695 c 128,-1,40
 180.694 353.503 180.694 353.503 180.694 387.85 c 0,41,42
 180.694 427.948 180.694 427.948 161.008 457.395 c 128,-1,43
 141.321 486.841 141.321 486.841 108.663 486.841 c 0,44,45
 86.0958 486.841 86.0958 486.841 69.0666 472.174 c 128,-1,46
 52.0374 457.508 52.0374 457.508 43.793 433.765 c 1,47,48
 51.2066 437.135 51.2066 437.135 58.1152 437.135 c 0,49,50
 75.4911 437.135 75.4911 437.135 87.8647 424.761 c 128,-1,51
 100.238 412.387 100.238 412.387 100.238 395.011 c 0,52,53
 100.238 376.588 100.238 376.588 87.9761 363.474 c 128,-1,54
 75.7139 350.36 75.7139 350.36 58.1152 350.36 c 0,55,56
 45.63 350.36 45.63 350.36 34.7744 356.278 c 128,-1,57
 23.9189 362.195 23.9189 362.195 17.4277 372.525 c 128,-1,58
 10.9365 382.854 10.9365 382.854 10.9365 395.011 c 0,59,60
 10.9365 437.301 10.9365 437.301 39.3927 467.547 c 128,-1,61
 67.8488 497.792 67.8488 497.792 108.663 497.792 c 0,22,23
EndSplineSet
Validated: 1
EndChar

StartChar: uniE16E
Encoding: 57710 57710 31
Width: 679
Flags: W
LayerCount: 2
Fore
SplineSet
140.51 280.568 m 128,-1,1
 140.51 249.945 140.51 249.945 159.387 249.945 c 0,2,3
 165.365 249.945 165.365 249.945 177.531 256.447 c 128,-1,4
 189.696 262.949 189.696 262.949 196.303 262.949 c 0,5,6
 235.591 262.949 235.591 262.949 263.98 237.781 c 128,-1,7
 292.369 212.612 292.369 212.612 292.369 175.693 c 0,8,9
 292.369 70.8184 292.369 70.8184 181.201 70.8184 c 0,10,11
 154.816 70.8184 154.816 70.8184 136.126 87.9855 c 128,-1,12
 117.437 105.153 117.437 105.153 117.437 130.388 c 0,13,14
 117.437 143.642 117.437 143.642 126.79 153.166 c 128,-1,15
 136.144 162.689 136.144 162.689 149.318 162.689 c 128,-1,16
 162.493 162.689 162.493 162.689 171.847 153.166 c 128,-1,17
 181.201 143.642 181.201 143.642 181.201 130.388 c 0,18,19
 181.201 122.207 181.201 122.207 170.923 114.446 c 128,-1,20
 160.646 106.686 160.646 106.686 160.646 98.5059 c 0,21,22
 160.646 91.5232 160.646 91.5232 166.815 87.0438 c 128,-1,23
 172.985 82.5645 172.985 82.5645 181.201 82.5645 c 0,24,25
 215.253 82.5645 215.253 82.5645 227.592 106.038 c 128,-1,26
 239.931 129.512 239.931 129.512 239.931 175.693 c 0,27,28
 239.931 214.049 239.931 214.049 231.447 232.627 c 128,-1,29
 222.963 251.204 222.963 251.204 196.303 251.204 c 0,30,31
 185.291 251.204 185.291 251.204 175.813 246.036 c 128,-1,32
 166.335 240.867 166.335 240.867 159.964 232.225 c 128,-1,33
 153.593 223.582 153.593 223.582 149.988 212.266 c 128,-1,34
 146.383 200.949 146.383 200.949 146.383 188.698 c 0,35,36
 146.383 182.825 146.383 182.825 140.51 182.825 c 0,37,38
 135.056 182.825 135.056 182.825 135.056 188.698 c 0,39,40
 135.056 237.36 135.056 237.36 99.8174 272.599 c 1,41,-1
 99.8174 75.0137 l 2,42,43
 99.8174 70.8184 99.8174 70.8184 95.623 70.8184 c 2,44,-1
 86.8135 70.8184 l 2,45,46
 82.6182 70.8184 82.6182 70.8184 82.6182 75.0137 c 2,47,-1
 82.6182 486.124 l 2,48,49
 82.6182 490.319 82.6182 490.319 86.8135 490.319 c 2,50,-1
 95.623 490.319 l 2,51,52
 99.8174 490.319 99.8174 490.319 99.8174 486.124 c 2,53,-1
 99.8174 288.539 l 1,54,55
 135.056 323.776 135.056 323.776 135.056 372.439 c 0,56,57
 135.056 378.312 135.056 378.312 140.51 378.312 c 0,58,59
 146.383 378.312 146.383 378.312 146.383 372.439 c 0,60,61
 146.383 346.985 146.383 346.985 160.361 328.459 c 128,-1,62
 174.339 309.934 174.339 309.934 196.303 309.934 c 0,63,64
 222.963 309.934 222.963 309.934 231.447 328.511 c 128,-1,65
 239.931 347.088 239.931 347.088 239.931 385.444 c 0,66,67
 239.931 415.717 239.931 415.717 235.624 434.753 c 128,-1,68
 231.318 453.788 231.318 453.788 217.949 466.181 c 128,-1,69
 204.58 478.573 204.58 478.573 181.201 478.573 c 0,70,71
 172.985 478.573 172.985 478.573 166.815 474.094 c 128,-1,72
 160.646 469.614 160.646 469.614 160.646 462.632 c 0,73,74
 160.646 454.452 160.646 454.452 170.923 446.691 c 128,-1,75
 181.201 438.93 181.201 438.93 181.201 430.75 c 0,76,77
 181.201 417.496 181.201 417.496 171.847 407.972 c 128,-1,78
 162.493 398.448 162.493 398.448 149.318 398.448 c 128,-1,79
 136.144 398.448 136.144 398.448 126.79 407.972 c 128,-1,80
 117.437 417.496 117.437 417.496 117.437 430.75 c 0,81,82
 117.437 455.985 117.437 455.985 136.126 473.152 c 128,-1,83
 154.816 490.319 154.816 490.319 181.201 490.319 c 0,84,85
 292.369 490.319 292.369 490.319 292.369 385.444 c 0,86,87
 292.369 348.526 292.369 348.526 263.98 323.357 c 128,-1,88
 235.59 298.188 235.59 298.188 196.303 298.188 c 0,89,90
 189.696 298.188 189.696 298.188 177.531 304.69 c 128,-1,91
 165.365 311.192 165.365 311.192 159.387 311.192 c 0,92,0
 140.51 311.192 140.51 311.192 140.51 280.568 c 128,-1,1
61.2236 70.8184 m 2,93,-1
 11.3027 70.8184 l 2,94,95
 7.1084 70.8184 7.1084 70.8184 7.1084 75.0137 c 2,96,-1
 7.1084 486.124 l 2,97,98
 7.1084 490.319 7.1084 490.319 11.3027 490.319 c 2,99,-1
 61.2236 490.319 l 2,100,101
 65.4189 490.319 65.4189 490.319 65.4189 486.124 c 2,102,-1
 65.4189 75.0137 l 2,103,104
 65.4189 70.8184 65.4189 70.8184 61.2236 70.8184 c 2,93,-1
EndSplineSet
Validated: 1
EndChar

StartChar: uniE173
Encoding: 57715 57715 32
Width: 1000
Flags: W
HStem: -190 6<117.922 142.345> -103 6<133.109 153.766> -100 17<77.4424 141.211> -54 84<55.25 99.1393> 65 16<109.742 183>
VStem: 10 29<151.318 255.574> 23 88<-49.4401 16.5925> 83 23<155.509 218.699> 94 19<468.552 573.353> 102 10<-180.179 -155.479> 116 10<-128.883 -108.969> 152 11<-177.393 -155.438> 159 10<-130.237 -106.625> 183 17<-34.5195 67 87 176.768> 196 29<503.829 611.838> 252 28<121.77 203.689>
LayerCount: 2
Fore
SplineSet
117 411 m 1,0,1
 94 490 94 490 94 570 c 0,2,3
 94 608 94 608 111 642 c 128,-1,4
 128 676 128 676 158 699 c 0,5,6
 159 700 159 700 161 700 c 128,-1,7
 163 700 163 700 164 699 c 0,8,9
 189 670 189 670 207 622 c 128,-1,10
 225 574 225 574 225 537 c 0,11,12
 225 494 225 494 204 457 c 128,-1,13
 183 420 183 420 145 377 c 1,14,15
 157 337 157 337 170 284 c 1,16,-1
 173 284 l 2,17,18
 220 284 220 284 250 251 c 128,-1,19
 280 218 280 218 280 175 c 0,20,21
 280 121 280 121 235 87 c 0,22,23
 219 76 219 76 200 70 c 1,24,25
 200 68 200 68 200 62 c 128,-1,26
 200 56 200 56 200 54 c 0,27,28
 200 21 200 21 199 -4 c 0,29,30
 196 -44 196 -44 170.5 -72 c 128,-1,31
 145 -100 145 -100 108 -100 c 0,32,33
 73 -100 73 -100 48 -74.5 c 128,-1,34
 23 -49 23 -49 23 -14 c 0,35,36
 23 4 23 4 37.5 17 c 128,-1,37
 52 30 52 30 71 30 c 0,38,39
 88 30 88 30 99.5 17 c 128,-1,40
 111 4 111 4 111 -14 c 0,41,42
 111 -30 111 -30 99 -42 c 128,-1,43
 87 -54 87 -54 71 -54 c 0,44,45
 63 -54 63 -54 55 -50 c 1,46,47
 73 -83 73 -83 109 -83 c 0,48,49
 139 -83 139 -83 159.5 -59 c 128,-1,50
 180 -35 180 -35 182 -2 c 0,51,52
 183 23 183 23 183 54 c 2,53,-1
 183 67 l 1,54,55
 167 65 167 65 150 65 c 0,56,57
 91 65 91 65 50.5 111 c 128,-1,58
 10 157 10 157 10 221 c 0,59,60
 10 235 10 235 13 249.5 c 128,-1,61
 16 264 16 264 19 274.5 c 128,-1,62
 22 285 22 285 31 300 c 128,-1,63
 40 315 40 315 44 322.5 c 128,-1,64
 48 330 48 330 61.5 346.5 c 128,-1,65
 75 363 75 363 78.5 367.5 c 128,-1,66
 82 372 82 372 98 390 c 128,-1,67
 114 408 114 408 117 411 c 1,0,1
199 87 m 1,68,69
 222 94 222 94 237 114.5 c 128,-1,70
 252 135 252 135 252 158 c 0,71,72
 252 188 252 188 232.5 211.5 c 128,-1,73
 213 235 213 235 181 239 c 1,74,75
 197 162 197 162 199 87 c 1,68,69
151 81 m 0,76,77
 170 81 170 81 183 83 c 1,78,79
 181 158 181 158 163 240 c 1,80,81
 137 239 137 239 121.5 223.5 c 128,-1,82
 106 208 106 208 106 188 c 0,83,84
 106 155 106 155 141 135 c 1,85,86
 144 132 144 132 144 129 c 0,87,88
 144 121 144 121 135 121 c 0,89,90
 134 121 134 121 132 121 c 0,91,92
 83 148 83 148 83 199 c 0,93,94
 83 228 83 228 102 252 c 128,-1,95
 121 276 121 276 154 282 c 1,96,97
 150 297 150 297 131 362 c 1,98,99
 108 336 108 336 96 321 c 128,-1,100
 84 306 84 306 68.5 282.5 c 128,-1,101
 53 259 53 259 46 236 c 128,-1,102
 39 213 39 213 39 188 c 0,103,104
 39 145 39 145 73 113 c 128,-1,105
 107 81 107 81 151 81 c 0,76,77
181 640 m 1,106,107
 150 623 150 623 131.5 592 c 128,-1,108
 113 561 113 561 113 525 c 0,109,110
 113 485 113 485 130 426 c 1,111,112
 162 464 162 464 179 498 c 128,-1,113
 196 532 196 532 196 570 c 0,114,115
 196 606 196 606 181 640 c 1,106,107
149 -140 m 1,116,117
 156 -145 156 -145 158 -148 c 0,118,119
 163 -154 163 -154 163 -161 c 0,120,121
 163 -174 163 -174 153 -182 c 128,-1,122
 143 -190 143 -190 129 -190 c 0,123,124
 102 -190 102 -190 102 -170 c 0,125,126
 102 -152 102 -152 125 -143 c 1,127,128
 116 -136 116 -136 116 -125 c 0,129,130
 116 -113 116 -113 124.5 -105 c 128,-1,131
 133 -97 133 -97 145 -97 c 0,132,133
 155 -97 155 -97 162 -103 c 128,-1,134
 169 -109 169 -109 169 -117 c 0,135,136
 169 -128 169 -128 160 -134 c 0,137,138
 157 -137 157 -137 149 -140 c 1,116,117
144 -137 m 0,139,140
 145 -137 145 -137 146 -136 c 0,141,142
 159 -130 159 -130 159 -117 c 0,143,144
 159 -111 159 -111 155 -107 c 128,-1,145
 151 -103 151 -103 144 -103 c 0,146,147
 136 -103 136 -103 131 -107.5 c 128,-1,148
 126 -112 126 -112 126 -119 c 0,149,150
 126 -129 126 -129 144 -137 c 0,139,140
130 -146 m 1,151,152
 129 -147 129 -147 128 -147 c 0,153,154
 112 -154 112 -154 112 -168 c 0,155,156
 112 -184 112 -184 130 -184 c 0,157,158
 139 -184 139 -184 145.5 -179 c 128,-1,159
 152 -174 152 -174 152 -167 c 0,160,161
 152 -158 152 -158 142 -152 c 0,162,163
 138 -150 138 -150 130 -146 c 1,151,152
EndSplineSet
Validated: 1
EndChar

StartChar: uniE171
Encoding: 57713 57713 33
Width: 673
Flags: W
HStem: 39.0674 6.2373<142.532 164.622> 312.869 42.9668<252.082 282.015> 350.36 86.7744<44.0245 87.4768> 418.179 42.9658<252.082 282.015> 486.841 10.9512<83.2125 133.754>
VStem: 10.9365 89.3018<363.885 424.373> 106.624 68.458<-49.5135 -7.86131> 121.998 11.6035<9.74937 31.9524> 171.021 10.8779<8.11403 35.1384> 180.694 51.3916<311.507 457.188> 245.565 42.9658<319.386 349.319 424.695 454.628>
LayerCount: 2
Fore
SplineSet
245.565 334.353 m 0,0,1
 245.565 343.199 245.565 343.199 251.884 349.517 c 128,-1,2
 258.202 355.836 258.202 355.836 267.048 355.836 c 128,-1,3
 275.894 355.836 275.894 355.836 282.213 349.517 c 128,-1,4
 288.531 343.199 288.531 343.199 288.531 334.353 c 128,-1,5
 288.531 325.506 288.531 325.506 282.213 319.188 c 128,-1,6
 275.894 312.869 275.894 312.869 267.048 312.869 c 0,7,8
 261.249 312.869 261.249 312.869 256.296 315.758 c 128,-1,9
 251.343 318.647 251.343 318.647 248.454 323.6 c 128,-1,10
 245.565 328.553 245.565 328.553 245.565 334.353 c 0,0,1
245.565 439.661 m 128,-1,12
 245.565 448.507 245.565 448.507 251.884 454.826 c 128,-1,13
 258.202 461.145 258.202 461.145 267.048 461.145 c 128,-1,14
 275.894 461.145 275.894 461.145 282.213 454.826 c 128,-1,15
 288.531 448.507 288.531 448.507 288.531 439.661 c 0,16,17
 288.531 433.862 288.531 433.862 285.642 428.91 c 128,-1,18
 282.753 423.957 282.753 423.957 277.8 421.068 c 128,-1,19
 272.847 418.179 272.847 418.179 267.048 418.179 c 0,20,21
 258.202 418.179 258.202 418.179 251.884 424.497 c 128,-1,11
 245.565 430.815 245.565 430.815 245.565 439.661 c 128,-1,12
108.663 497.792 m 0,22,23
 164.428 497.792 164.428 497.792 198.257 470.092 c 128,-1,24
 232.086 442.391 232.086 442.391 232.086 392.062 c 0,25,26
 232.086 352.4 232.086 352.4 214.033 318.076 c 128,-1,27
 195.981 283.751 195.981 283.751 162.449 256.984 c 128,-1,28
 128.916 230.216 128.916 230.216 94.5733 211.029 c 128,-1,29
 60.2302 191.842 60.2302 191.842 14.7275 172.599 c 0,30,31
 13.0443 170.914 13.0443 170.914 10.9365 170.914 c 0,32,33
 5.46094 170.914 5.46094 170.914 5.46094 176.39 c 0,34,35
 5.46094 178.496 5.46094 178.496 7.14551 180.181 c 0,36,37
 44.6294 202.077 44.6294 202.077 71.089 220.914 c 128,-1,38
 97.5486 239.75 97.5486 239.75 124.899 265.819 c 128,-1,39
 152.25 291.887 152.25 291.887 166.472 322.695 c 128,-1,40
 180.694 353.503 180.694 353.503 180.694 387.85 c 0,41,42
 180.694 427.948 180.694 427.948 161.008 457.395 c 128,-1,43
 141.321 486.841 141.321 486.841 108.663 486.841 c 0,44,45
 86.0958 486.841 86.0958 486.841 69.0666 472.174 c 128,-1,46
 52.0374 457.508 52.0374 457.508 43.793 433.765 c 1,47,48
 51.2066 437.135 51.2066 437.135 58.1152 437.135 c 0,49,50
 75.4911 437.135 75.4911 437.135 87.8647 424.761 c 128,-1,51
 100.238 412.387 100.238 412.387 100.238 395.011 c 0,52,53
 100.238 376.588 100.238 376.588 87.9761 363.474 c 128,-1,54
 75.7139 350.36 75.7139 350.36 58.1152 350.36 c 0,55,56
 45.63 350.36 45.63 350.36 34.7744 356.278 c 128,-1,57
 23.9189 362.195 23.9189 362.195 17.4277 372.525 c 128,-1,58
 10.9365 382.854 10.9365 382.854 10.9365 395.011 c 0,59,60
 10.9365 437.301 10.9365 437.301 39.3927 467.547 c 128,-1,61
 67.8488 497.792 67.8488 497.792 108.663 497.792 c 0,22,23
159.998 -3.1377 m 1,62,63
 167.27 -7.85542 167.27 -7.85542 170.15 -11.6953 c 0,64,65
 175.082 -18.4197 175.082 -18.4197 175.082 -26.4893 c 0,66,67
 175.082 -40.6255 175.082 -40.6255 164.261 -49.8015 c 128,-1,68
 153.44 -58.9775 153.44 -58.9775 136.792 -58.9775 c 0,69,70
 122.89 -58.9775 122.89 -58.9775 114.757 -52.8214 c 128,-1,71
 106.624 -46.6653 106.624 -46.6653 106.624 -36.207 c 0,72,73
 106.624 -15.906 106.624 -15.906 132.876 -5.89355 c 1,74,75
 121.998 1.96243 121.998 1.96243 121.998 14.2666 c 0,76,77
 121.998 22.8428 121.998 22.8428 126.367 29.9716 c 128,-1,78
 130.736 37.1004 130.736 37.1004 138.37 41.2025 c 128,-1,79
 146.004 45.3047 146.004 45.3047 155.212 45.3047 c 0,80,81
 166.859 45.3047 166.859 45.3047 174.379 38.9374 c 128,-1,82
 181.898 32.5702 181.898 32.5702 181.898 22.6787 c 0,83,84
 181.898 11.1711 181.898 11.1711 172.326 3.82324 c 0,85,86
 168.769 1.0564 168.769 1.0564 159.998 -3.1377 c 1,62,63
153.762 0.197266 m 1,87,88
 155.005 0.944514 155.005 0.944514 156.082 1.21289 c 0,89,90
 171.021 8.07117 171.021 8.07117 171.021 23.5488 c 0,91,92
 171.021 27.9895 171.021 27.9895 168.849 31.536 c 128,-1,93
 166.678 35.0826 166.678 35.0826 162.798 37.075 c 128,-1,94
 158.918 39.0674 158.918 39.0674 154.052 39.0674 c 0,95,96
 145.568 39.0674 145.568 39.0674 139.585 33.8469 c 128,-1,97
 133.602 28.6264 133.602 28.6264 133.602 21.2285 c 0,98,99
 133.602 9.97832 133.602 9.97832 153.762 0.197266 c 1,87,88
138.388 -9.80957 m 4,100,101
 135.632 -10.9697 l 4,102,103
 118.372 -18.4336 118.372 -18.4336 118.372 -34.4658 c 4,104,105
 118.372 -52.5957 118.372 -52.5957 138.388 -52.5957 c 4,106,107
 145.098 -52.5957 145.098 -52.5957 150.629 -50.0165 c 132,-1,108
 156.159 -47.4373 156.159 -47.4373 159.311 -42.9438 c 132,-1,109
 162.464 -38.4502 162.464 -38.4502 162.464 -33.0156 c 4,110,111
 162.464 -23.0368 162.464 -23.0368 151.296 -16.3369 c 4,112,113
 147.627 -14.1353 147.627 -14.1353 138.388 -9.80957 c 4,100,101
EndSplineSet
Validated: 1
EndChar

StartChar: uniE16C
Encoding: 57708 57708 34
Width: 166
Flags: W
VStem: 124.141 20.6875<-102.693 21.9107 578.089 702.693> 155.172 18.9639<115.259 227.116 372.885 484.741>
LayerCount: 2
Fore
SplineSet
107.135742188 156.909179688 m 4,0,1
 107.135742188 118.981445312 107.135742188 118.981445312 92.482421875 45.712890625 c 132,-1,2
 77.828125 -27.5556640625 77.828125 -27.5556640625 77.828125 -62.8974609375 c 4,3,4
 77.828125 -129.271484375 77.828125 -129.271484375 114.893554688 -166.336914062 c 4,5,6
 115.755859375 -167.198242188 115.755859375 -167.198242188 115.755859375 -169.78515625 c 4,7,8
 115.755859375 -174.95703125 115.755859375 -174.95703125 111.4453125 -174.95703125 c 4,9,10
 109.720703125 -174.95703125 109.720703125 -174.95703125 107.998046875 -173.232421875 c 4,11,12
 57.140625 -121.219726562 57.140625 -121.219726562 57.140625 -29.2802734375 c 4,13,14
 57.140625 9.6171875 57.140625 9.6171875 72.65625 84.39453125 c 132,-1,15
 88.171875 159.171875 88.171875 159.171875 88.171875 194.836914062 c 4,16,17
 88.171875 260.05078125 88.171875 260.05078125 51.1064453125 298.276367188 c 4,18,19
 50.244140625 299.137695312 50.244140625 299.137695312 50.244140625 300 c 132,-1,20
 50.244140625 300.862304688 50.244140625 300.862304688 51.1064453125 301.723632812 c 4,21,22
 88.171875 339.94921875 88.171875 339.94921875 88.171875 405.163085938 c 4,23,24
 88.171875 440.828125 88.171875 440.828125 72.65625 515.60546875 c 132,-1,25
 57.140625 590.3828125 57.140625 590.3828125 57.140625 629.280273438 c 4,26,27
 57.140625 721.219726562 57.140625 721.219726562 107.998046875 773.232421875 c 4,28,29
 109.720703125 774.95703125 109.720703125 774.95703125 111.4453125 774.95703125 c 4,30,31
 115.755859375 774.95703125 115.755859375 774.95703125 115.755859375 769.78515625 c 4,32,33
 115.755859375 767.19921875 115.755859375 767.19921875 114.893554688 766.336914062 c 4,34,35
 77.828125 729.271484375 77.828125 729.271484375 77.828125 662.8984375 c 4,36,37
 77.828125 627.556640625 77.828125 627.556640625 92.482421875 554.287109375 c 132,-1,38
 107.135742188 481.018554688 107.135742188 481.018554688 107.135742188 443.090820312 c 4,39,40
 107.135742188 352.321289062 107.135742188 352.321289062 57.140625 300 c 5,41,42
 107.135742188 247.6796875 107.135742188 247.6796875 107.135742188 156.909179688 c 4,0,1
EndSplineSet
Validated: 1
EndChar

StartChar: equal
Encoding: 61 61 35
Width: 1155
Flags: W
LayerCount: 2
Fore
SplineSet
215.5 482.42 m 1,0,-1
 938.43 482.42 l 1,1,-1
 938.43 436.5001 l 1,2,-1
 215.5 436.5001 l 1,3,-1
 215.5 482.42 l 1,0,-1
215.5 299.859 m 1,4,-1
 938.43 299.859 l 1,5,-1
 938.43 253.9391 l 1,6,-1
 215.5 253.9391 l 1,7,-1
 215.5 299.859 l 1,4,-1
EndSplineSet
Validated: 1
EndChar

StartChar: N
Encoding: 78 78 36
Width: 460
Flags: W
LayerCount: 2
Fore
SplineSet
277.025 685.551 m 0,0,1
 311.3814 685.551 311.3814 685.551 335.5357 668.3196 c 128,-1,2
 359.691 651.0882 359.691 651.0882 359.691 617.844 c 0,3,4
 359.691 548.5295 359.691 548.5295 277.8121 499.749 c 0,5,6
 231.4342 471.4072 231.4342 471.4072 183.3365 471.4072 c 0,7,8
 148.9801 471.4072 148.9801 471.4072 124.8258 488.6386 c 0,9,10
 122.24475 490.4804 122.24475 490.4804 119.93908 492.50481 c 1,11,-1
 119.93908 97.77381 l 1,12,13
 155.03478 118.33531 155.03478 118.33531 182.09138 137.36561 c 128,-1,14
 209.14898 156.39591 209.14898 156.39591 238.72808 182.91931 c 128,-1,15
 268.30618 209.44181 268.30618 209.44181 284.66168 239.91051 c 128,-1,16
 301.01618 270.38021 301.01618 270.38021 301.01618 301.68301 c 0,17,18
 301.01618 365.29821 301.01618 365.29821 269.52498 430.79901 c 1,19,20
 268.39803 436.43378 268.39803 436.43378 270.6451 441.06461 c 128,-1,21
 272.89119 445.69645 272.89119 445.69645 277.06502 448.08902 c 128,-1,22
 281.23885 450.4816 281.23885 450.4816 286.05818 450.4816 c 0,23,24
 294.94295 450.4816 294.94295 450.4816 299.44198 442.60855 c 0,25,26
 331.72128 370.30285 331.72128 370.30285 331.72128 301.68255 c 0,27,28
 331.72128 257.51555 331.72128 257.51555 309.90778 214.67375 c 128,-1,29
 288.09428 171.83195 288.09428 171.83195 256.96248 136.57415 c 128,-1,30
 225.82968 101.31635 225.82968 101.31635 194.69788 66.05755 c 128,-1,31
 163.56608 30.79975 163.56608 30.79975 141.75258 -12.04105 c 128,-1,32
 119.93908 -54.88285 119.93908 -54.88285 119.93908 -99.04985 c 2,33,-1
 119.93908 -105.18266 l 1,34,-1
 100.68418 -105.18266 l 1,35,-1
 100.68418 539.07634 l 1,36,-1
 100.68418 539.1144259 l 1,37,-1
 100.68418 539.1368868 l 1,38,-1
 100.68418 539.7501678 l 1,39,-1
 100.68613313 539.7501678 l 1,40,41
 101.05918013 608.1886678 101.05918013 608.1886678 183.33653313 657.2081678 c 0,42,43
 229.71643313 685.5509678 229.71643313 685.5509678 277.025 685.551 c 0,0,1
EndSplineSet
Validated: 1
EndChar

StartChar: c
Encoding: 99 99 37
Width: 813
Flags: W
HStem: 5.551 24<106.869 706.255> 106.039 40.9085<179.408 306.111 523.958 626.91> 325.975 39.4608<528.58 623.115> 404.899 40.9079<179.646 306.429> 518.926 24<106.869 706.255>
VStem: 54.1715 24<58.2489 490.228> 132.081 46.6819<147.205 404.642> 356.346 49.5679<194.118 357.062> 458.318 46.6812<165.679 302.314> 646.489 46.6819<165.682 302.426> 734.952 24<58.2489 490.228>
LayerCount: 2
Fore
SplineSet
144.484 542.926 m 6,0,-1
 668.64 542.926 l 6,1,2
 706.0111 542.926 706.0111 542.926 732.4818 516.4553 c 132,-1,3
 758.9525 489.9846 758.9525 489.9846 758.9525 452.6135 c 6,4,-1
 758.9525 95.8635 l 6,5,6
 758.9525 58.4924 758.9525 58.4924 732.4818 32.0217 c 132,-1,7
 706.0111 5.551 706.0111 5.551 668.64 5.551 c 6,8,-1
 144.484 5.551 l 6,9,10
 107.1129 5.551 107.1129 5.551 80.6422 32.0217 c 132,-1,11
 54.1715 58.4924 54.1715 58.4924 54.1715 95.8635 c 6,12,-1
 54.1715 452.6135 l 6,13,14
 54.1715 489.9846 54.1715 489.9846 80.6422 516.4553 c 132,-1,15
 107.1129 542.926 107.1129 542.926 144.484 542.926 c 6,0,-1
144.484 518.926 m 4,16,17
 116.7731 518.926 116.7731 518.926 97.4723 499.6252 c 132,-1,18
 78.1715 480.3244 78.1715 480.3244 78.1715 452.6135 c 6,19,-1
 78.1715 95.8635 l 6,20,21
 78.1715 68.1526 78.1715 68.1526 97.4723 48.8518 c 132,-1,22
 116.7731 29.551 116.7731 29.551 144.484 29.551 c 6,23,-1
 668.64 29.551 l 6,24,25
 696.3509 29.551 696.3509 29.551 715.6517 48.8518 c 132,-1,26
 734.9525 68.1526 734.9525 68.1526 734.9525 95.8635 c 6,27,-1
 734.9525 452.6135 l 6,28,29
 734.9525 480.3244 734.9525 480.3244 715.6517 499.6252 c 132,-1,30
 696.3509 518.926 696.3509 518.926 668.64 518.926 c 6,31,-1
 144.484 518.926 l 4,16,17
132.081 437.625 m 5,32,33
 165.6328 445.80664 165.6328 445.80664 213.5849 445.80664 c 4,34,35
 352.8139 445.80664 352.8139 445.80664 392.4389 350.99804 c 4,36,37
 405.9135 319.23634 405.9135 319.23634 405.9135 275.92384 c 4,38,39
 405.9135 148.74584 405.9135 148.74584 295.7065 116.14684 c 4,40,41
 261.5376 106.03944 261.5376 106.03944 213.5835 106.03944 c 132,-1,42
 165.6284 106.04139312 165.6284 106.04139312 132.0806 114.22108 c 5,43,-1
 132.0806 437.62508 l 5,44,-1
 132.081 437.625 l 5,32,33
323.62 180.635 m 5,45,46
 356.3446 214.803 356.3446 214.803 356.3456 275.9241 c 132,-1,47
 356.34364688 337.0432 356.34364688 337.0432 323.619 370.971 c 132,-1,48
 290.894449573 404.8987 290.894449573 404.8987 224.481691495 404.8987 c 0,49,-1
 224.4813 404.8987 l 4,50,51
 191.7645 404.8987 191.7645 404.8987 178.7625 403.45534 c 5,52,-1
 178.7625 148.39134 l 5,53,54
 191.7439 146.94798 191.7439 146.94798 224.3934 146.94798 c 4,55,56
 290.8963 146.94993312 290.8963 146.94993312 323.62 180.63548 c 5,57,-1
 323.62 180.635 l 5,45,46
491.044 329.342 m 4,58,59
 524.1329 365.4358 524.1329 365.4358 576.0059 365.4358 c 132,-1,60
 627.8799 365.4358 627.8799 365.4358 660.5254 329.2776 c 132,-1,61
 693.1709 293.1194 693.1709 293.1194 693.1709 234.0549 c 132,-1,62
 693.1709 174.9904 693.1709 174.9904 660.5264 138.8303 c 132,-1,63
 627.8819 102.6721 627.8819 102.6721 575.7452 102.6721 c 4,64,65
 524.1309 102.6721 524.1309 102.6721 491.044 138.7659 c 4,66,67
 458.3184 175.5862 458.3184 175.5862 458.3184 234.055 c 132,-1,68
 458.3184 292.5277 458.3184 292.5277 491.044 329.342 c 4,58,59
646.489 234.055 m 132,-1,70
 646.489 276.4046 646.489 276.4046 627.4802 301.1898 c 132,-1,71
 608.4704 325.973 608.4704 325.973 575.7448 325.975 c 132,-1,72
 543.0192 325.97304688 543.0192 325.97304688 524.0094 301.1879 c 132,-1,73
 504.9996 276.4047 504.9996 276.4047 504.9996 234.0531 c 132,-1,74
 504.9996 191.7035 504.9996 191.7035 523.7691 166.6781 c 4,75,76
 543.0191 142.1351 543.0191 142.1351 575.7447 142.1351 c 132,-1,77
 608.4693 142.1351 608.4693 142.1351 627.4781 166.9183 c 132,-1,69
 646.4879 191.7035 646.4879 191.7035 646.489 234.055 c 132,-1,70
EndSplineSet
Validated: 1
EndChar

StartChar: s
Encoding: 115 115 38
Width: 1000
Flags: W
HStem: -87.9775 20.795<271.318 336.715> -45.5897 79.5771<258.481 290.54> 43 24<41 370.967 391.943 504.448 697.157 957> 68.3781 20.7944<295.366 370.351> 151 24<41 207.747 240.461 270.12 314.89 361.258 385.97 429.033 461.119 533.432 717.023 957> 234.73 42.2696<311.643 336.435> 253 24<43 208.336 264.771 284.387 428.84 699.19 717.14 851.74 885.4 959> 351 24<41 256.614 335.793 699.188 717.078 844.769 892.606 957> 455 24<41 268.78 297.778 329.542 388.714 699.161 717.271 757.933 847.409 957> 655.001 20G<320.961 328.655>
VStem: 203.198 32.391<175.561 248.748> 219.193 82.7753<-34.0777 21.3151> 265.979 31.1924<175 220.35> 268.78 17.1922<479 546.344> 371.149 20.7941<-24.0252 43 67 70.7765 97.991 151> 430.307 28.3277<118.061 151> 503.291 213.414<67.7011 140.974> 699.104 17.9189<175.313 253 277 351 375 455 479 506.419 619.828 668.799> 852.936 41.3828<277.733 351>
LayerCount: 2
Fore
SplineSet
348.355 609.422 m 5,0,1
 319.5103 592.8976 319.5103 592.8976 302.7417 563.9406 c 132,-1,2
 285.9731 534.9836 285.9731 534.9836 285.9722 501.4543 c 4,3,4
 285.9722 494.534580131 285.9722 494.534580131 290.288171487 479 c 5,5,-1
 342.139094291 479 l 5,6,7
 363.150376136 523.511792046 363.150376136 523.511792046 363.151 561.8363 c 4,8,9
 363.151 587.723 363.151 587.723 348.355 609.422 c 5,0,1
323.96294 122.361 m 4,10,11
 318.07918 122.361 318.07918 122.361 305.3302 129.95573 c 4,12,13
 294.622644542 136.332386693 294.622644542 136.332386693 283.523678102 151 c 5,14,-1
 240.461110289 151 l 5,15,16
 248.362008291 131.253917 248.362008291 131.253917 269.0752 115.17143 c 4,17,18
 302.562835 89.17243 302.562835 89.17243 343.15687 89.17243 c 4,19,20
 359.354835 89.17243 359.354835 89.17243 370.3506 91.17145 c 5,21,22
 368.922972024 120.53315403 368.922972024 120.53315403 364.8489933 151 c 5,23,-1
 314.889834465 151 l 5,24,25
 321.567149407 145.354675296 321.567149407 145.354675296 330.7608 140.75785 c 5,26,27
 334.359430267 137.159219733 334.359430267 137.159219733 334.359430267 133.160417391 c 0,28,-1
 334.35943 133.15824 l 4,29,30
 334.35943 130.39945 334.35943 130.39945 332.94341 127.90336 c 132,-1,31
 331.52642 125.40629 331.52642 125.40629 329.11138 123.88481 c 132,-1,32
 326.69634 122.3610925 326.69634 122.3610925 323.96294 122.361 c 4,10,11
391.144 97.1689 m 5,33,34
 407.9292 104.59273 407.9292 104.59273 419.3295 121.0712 c 4,35,36
 428.530073889 134.367785498 428.530073889 134.367785498 430.306657891 151 c 5,37,-1
 385.969581798 151 l 5,38,39
 389.596984587 123.465566401 389.596984587 123.465566401 391.144 97.1689 c 5,33,34
576.89 8.59668 m 4,40,41
 547.7572 8.6889651 547.7572 8.6889651 525.055 29.43458 c 4,42,43
 518.259362334 35.6442737751 518.259362334 35.6442737751 513.58563828 43 c 5,44,-1
 391.773542629 43 l 5,45,46
 391.36069271 22.7409842467 391.36069271 22.7409842467 389.9432 6.7949 c 4,47,48
 386.50082 -32.3301 386.50082 -32.3301 363.0614 -60.1543 c 132,-1,49
 339.621835 -87.9775 339.621835 -87.9775 305.16767 -87.9775 c 4,50,51
 269.809335 -87.9775 269.809335 -87.9775 244.5008 -64.6093 c 132,-1,52
 219.19319996 -41.2430232544 219.19319996 -41.2430232544 219.19319996 -7.60315839026 c 0,53,-1
 219.1932 -7.6005 l 4,54,55
 219.1932 9.5763 219.1932 9.5763 232.619 21.7823 c 132,-1,56
 246.04375 33.9874 246.04375 33.9874 263.9802 33.9874 c 4,57,58
 279.98025 33.9874 279.98025 33.9874 290.9744 21.7003 c 132,-1,59
 301.9676 9.4122 301.9676 9.4122 301.9685 -7.6005 c 4,60,61
 301.9685 -23.2655 301.9685 -23.2655 290.8874 -34.4276 c 132,-1,62
 279.8054 -45.5897 279.8054 -45.5897 263.9802 -45.5897 c 4,63,64
 261.58469 -45.5897 261.58469 -45.5897 258.38157 -44.789895 c 5,65,66
 276.16477 -67.182495 276.16477 -67.182495 305.16767 -67.182495 c 4,67,68
 331.56517 -67.182495 331.56517 -67.182495 348.92937 -44.665895 c 132,-1,69
 366.29167 -22.149295 366.29167 -22.149295 369.14907 9.594805 c 4,70,71
 370.545237893 24.2538697946 370.545237893 24.2538697946 370.966763393 43 c 5,72,-1
 41 43 l 5,73,-1
 41 67 l 5,74,-1
 371.14907 67 l 5,75,-1
 371.14907 70.776505 l 5,76,77
 357.34727 68.378065 357.34727 68.378065 343.15687 68.378065 c 4,78,79
 284.94787 68.378065 284.94787 68.378065 244.07387 110.872165 c 4,80,81
 226.306999962 129.342329615 226.306999962 129.342329615 216.262550679 151 c 5,82,-1
 41 151 l 5,83,-1
 41 175 l 5,84,-1
 207.747147505 175 l 5,85,86
 203.197869976 192.927250472 203.197869976 192.927250472 203.197869976 212.732260372 c 0,87,-1
 203.19787 212.735165 l 4,88,89
 203.19787 226.194165 203.19787 226.194165 205.85119 240.283965 c 4,90,91
 207.136653595 247.112907898 207.136653595 247.112907898 208.335730528 253 c 5,92,-1
 43 253 l 5,93,-1
 43 277 l 5,94,-1
 214.92744959 277 l 5,95,96
 217.390715235 283.020852769 217.390715235 283.020852769 221.0553 290.233165 c 4,97,98
 229.04846 305.966565 229.04846 305.966565 231.8629 312.366965 c 132,-1,99
 234.67638 318.766375 234.67638 318.766375 246.7926 336.566165 c 4,100,101
 253.023587351 345.718782573 253.023587351 345.718782573 256.613880302 351 c 5,102,-1
 41 351 l 5,103,-1
 41 375 l 5,104,-1
 273.780125906 375 l 5,105,106
 275.82656794 377.770724025 275.82656794 377.770724025 278.1929 380.966565 c 4,107,108
 293.2124 401.252665 293.2124 401.252665 293.9683 402.280065 c 5,109,110
 282.292380377 431.788336211 282.292380377 431.788336211 275.232984177 455 c 5,111,-1
 41 455 l 5,112,-1
 41 479 l 5,113,-1
 268.779964075 479 l 5,114,115
 261.977069864 509.079271217 261.977069864 509.079271217 261.977069864 550.225423532 c 0,116,-1
 261.97707 550.237065 l 4,117,118
 261.97707 583.478265 261.97707 583.478265 275.53857 614.130665 c 132,-1,119
 289.09817 644.782065 289.09817 644.782065 303.33157 659.892365 c 132,-1,120
 317.56597 675.000765 317.56597 675.000765 324.35697 675.000765 c 4,121,122
 332.95267 675.000765 332.95267 675.000765 349.76617 652.085765 c 132,-1,123
 366.58067 629.170765 366.58067 629.170765 381.05817 592.747865 c 132,-1,124
 395.536670069 556.326580369 395.536670069 556.326580369 395.536670069 525.849774621 c 0,125,-1
 395.53667 525.845565 l 4,126,127
 395.53667 511.800665 395.53667 511.800665 393.01812 497.530165 c 4,128,129
 391.39115203 488.312154858 391.39115203 488.312154858 388.713573271 479 c 5,130,-1
 699.160806708 479 l 5,131,132
 699.164229379 618.192724821 699.164229379 618.192724821 699.6428516 668.65528 c 5,133,134
 704.50082717 670.59683052 704.50082717 670.59683052 708.195281441 670.59683052 c 0,135,136
 716.397288316 670.59683052 716.397288316 670.59683052 718.8645516 661.02735 c 4,137,138
 720.8523516 653.31788 720.8523516 653.31788 721.1819316 645.28025 c 4,139,140
 722.0974596 622.89305 722.0974596 622.89305 728.6321316 615.56635 c 5,141,142
 749.7771316 560.78555 749.7771316 560.78555 812.7805316 495.56535 c 4,143,144
 820.805104132 487.258313536 820.805104132 487.258313536 828.029063541 479 c 5,145,-1
 957 479 l 5,146,-1
 957 455 l 5,147,-1
 847.408733042 455 l 5,148,149
 877.437346805 414.40094958 877.437346805 414.40094958 887.778817587 375 c 5,150,-1
 957 375 l 5,151,-1
 957 351 l 5,152,-1
 892.60630521 351 l 5,153,154
 894.318596304 338.715453979 894.318596304 338.715453979 894.3186016 327.04765 c 4,155,156
 894.3186016 300.417118931 894.3186016 300.417118931 885.400065388 277 c 5,157,-1
 959 277 l 5,158,-1
 959 253 l 5,159,-1
 717.140357579 253 l 5,160,161
 717.132878406 209.085343764 717.132878406 209.085343764 717.022651513 175 c 5,162,-1
 957 175 l 5,163,-1
 957 151 l 5,164,-1
 716.926420534 151 l 5,165,166
 716.835260447 132.314381654 716.835260447 132.314381654 716.705355 117.33532 c 5,167,168
 713.048800715 89.3922852641 713.048800715 89.3922852641 697.156757181 67 c 5,169,-1
 957 67 l 5,170,-1
 957 43 l 5,171,-1
 674.735047875 43 l 5,172,173
 671.571736173 40.3556516573 671.571736173 40.3556516573 668.176055 37.81672 c 4,174,175
 628.875755 8.43202 628.875755 8.43202 583.719055 8.43192 c 4,176,177
 580.322085 8.43192 580.322085 8.43192 576.89 8.59668 c 4,40,41
504.447797043 67 m 5,178,179
 503.29141525 73.6686937872 503.29141525 73.6686937872 503.2913 80.96188 c 4,180,181
 503.2913 116.05518 503.2913 116.05518 530.7796 147.99898 c 4,182,183
 532.090437075 149.522348444 532.090437075 149.522348444 533.431626117 151 c 5,184,-1
 458.63435697 151 l 5,185,186
 454.047337518 130.076962813 454.047337518 130.076962813 440.992 112.8359 c 4,187,188
 420.8602 86.2568 420.8602 86.2568 391.9432 75.9746 c 5,189,-1
 391.9432 67 l 5,190,-1
 504.447797043 67 l 5,178,179
561.732524572 175 m 5,191,192
 577.49713801 185.078335015 577.49713801 185.078335015 596.0999 190.88178 c 4,193,194
 615.7302 197.00483 615.7302 197.00483 634.6458 197.00483 c 4,195,196
 653.1644 197.00483 653.1644 197.00483 670.9983 191.13471 c 5,197,198
 676.2234 190.52973 676.2234 190.52973 685.2532 182.79389 c 4,199,200
 694.007124226 175.29518062 694.007124226 175.29518062 697.621534378 175.29518062 c 0,201,202
 697.735837176 175.29518062 697.735837176 175.29518062 697.845 175.30268 c 4,203,204
 700.007775151 175.452143449 700.007775151 175.452143449 700.007775151 180.019032733 c 0,205,206
 700.007775151 182.971570394 700.007775151 182.971570394 699.10379 187.77048 c 5,207,208
 699.166188117 210.992563479 699.166188117 210.992563479 699.190250693 253 c 5,209,-1
 428.83996277 253 l 5,210,211
 430.545788402 251.251514173 430.545788402 251.251514173 432.19683 249.403165 c 4,212,213
 461.031805007 217.125060956 461.031805007 217.125060956 461.118737137 175 c 5,214,-1
 561.732524572 175 l 5,191,192
429.033159959 175 m 5,215,216
 427.235055987 183.221758013 427.235055987 183.221758013 423.53356 191.0908 c 4,217,218
 416.33727 206.3955 416.33727 206.3955 402.60676 217.7168 c 132,-1,219
 388.876915 229.0391 388.876915 229.0391 371.14907 233.1299 c 5,220,221
 377.866983059 203.430029629 377.866983059 203.430029629 382.450600869 175 c 5,222,-1
 429.033159959 175 l 5,215,216
270.119622906 175 m 5,223,224
 265.9786 187.066200138 265.9786 187.066200138 265.9786 200.73983 c 4,225,226
 265.9786 219.83843 265.9786 219.83843 274.0704 236.90873 c 4,227,228
 278.167223827 245.548719493 278.167223827 245.548719493 284.386537305 253 c 5,229,-1
 253.498496307 253 l 5,230,231
 251.018307317 247.16537372 251.018307317 247.16537372 248.5567 240.87843 c 4,232,233
 235.5889 207.75733 235.5889 207.75733 235.5889 176.74663 c 4,234,235
 235.5889 175.870410651 235.5889 175.870410651 235.609214126 175 c 6,236,-1
 270.119622906 175 l 5,223,224
361.257577907 175 m 5,237,238
 356.402082209 204.366121494 356.402082209 204.366121494 349.1563 234.73045 c 5,239,240
 325.2344 233.57713 325.2344 233.57713 311.2022 220.10055 c 132,-1,241
 297.171 206.62395 297.171 206.62395 297.171 188.34375 c 4,242,243
 297.171 181.306315396 297.171 181.306315396 298.925642219 175 c 5,244,-1
 361.257577907 175 l 5,237,238
699.200434236 277 m 5,245,246
 699.205246438 293.492555552 699.205246438 293.492555552 699.205352 312.29148 c 4,247,248
 699.203292363 330.706190577 699.203292363 330.706190577 699.196871485 351 c 5,249,-1
 335.792875983 351 l 5,250,251
 347.978648021 316.326451042 347.978648021 316.326451042 357.54843 283.515465 c 5,252,253
 376.202803551 282.807150745 376.202803551 282.807150745 392.06000641 277 c 5,254,-1
 699.200434236 277 l 5,245,246
851.739872998 277 m 5,255,256
 849.811998703 282.944970506 849.811998703 282.944970506 849.8117716 288.68242 c 132,-1,257
 849.8117716 294.46123 849.8117716 294.46123 851.7668516 300.02912 c 5,258,259
 852.9358016 311.23522 852.9358016 311.23522 852.9358016 321.93732 c 4,260,261
 852.9358016 336.964670588 852.9358016 336.964670588 850.63120774 351 c 5,262,-1
 717.078156153 351 l 5,263,264
 717.085681101 332.252146888 717.085681101 332.252146888 717.1086754 311.87692 c 4,265,266
 717.129692129 293.797821926 717.129692129 293.797821926 717.137002699 277 c 5,267,-1
 851.739872998 277 l 5,255,256
317.26639458 277 m 5,268,269
 326.398272363 280.665139225 326.398272363 280.665139225 336.7589 282.31593 c 5,270,271
 325.3009 320.73393 325.3009 320.73393 314.3653 349.89603 c 5,272,273
 288.4864 315.12743 288.4864 315.12743 275.0049 294.56303 c 4,274,275
 269.850513637 286.69926484 269.850513637 286.69926484 264.77095779 277 c 5,276,-1
 317.26639458 277 l 5,268,269
699.188028477 375 m 5,277,278
 699.177458777 400.293291273 699.177458777 400.293291273 699.16078297 428.21748 c 4,279,280
 699.16078297 436.57762 699.16078297 436.57762 699.16078297 444.87868 c 6,281,-1
 699.16078297 455 l 5,282,-1
 380.352001431 455 l 5,283,284
 372.267556036 434.629480271 372.267556036 434.629480271 362.69003 418.838765 c 4,285,286
 351.239076042 399.9577938 351.239076042 399.9577938 333.171251324 375 c 5,287,-1
 699.188028477 375 l 5,277,278
844.768689713 375 m 5,288,289
 831.562739061 415.058026252 831.562739061 415.058026252 797.0032016 445.92432 c 4,290,291
 791.891423223 450.596853644 791.891423223 450.596853644 786.894070213 455 c 5,292,-1
 717.165966714 455 l 5,293,294
 717.152860551 451.339413104 717.152860551 451.339413104 717.140902 447.55902 c 4,295,296
 717.072388468 418.303338453 717.072388468 418.303338453 717.072388468 381.858549305 c 0,297,-1
 717.072984074 375 l 5,298,-1
 844.768689713 375 l 5,288,289
297.77814212 455 m 5,299,300
 302.519705491 440.939212446 302.519705491 440.939212446 309.1656 423.0773 c 5,301,302
 320.555579004 439.392484301 320.555579004 439.392484301 329.542470846 455 c 5,303,-1
 297.77814212 455 l 5,299,300
757.932520898 479 m 5,304,305
 736.476999194 495.572403186 736.476999194 495.572403186 717.4534016 506.41942 c 5,306,307
 717.349923891 493.988368679 717.349923891 493.988368679 717.270942499 479 c 5,308,-1
 757.932520898 479 l 5,304,305
EndSplineSet
Validated: 3073
EndChar

StartChar: h
Encoding: 104 104 39
Width: 744
VWidth: 0
Flags: W
HStem: -4.61523 88.7246<295.861 342.103 404.105 450.347> 96.5312 31.9404<295.966 338.06 408.805 450.347> 218.971 31.9414<290.642 334.922 409.533 453.896> 339.637 31.9404<285.331 331.962 414.135 459.219>
VStem: 230.478 54.8404<337.202 341.411 373.79 393.138> 240.987 49.6549<94.5778 96.5312 128.472 142.539> 249.876 35.4391<410.733 427.489> 253.952 31.3662<166.987 212.296 282.853 337.138> 342.103 62.1074<84.1327 96.3719 130.347 216.3 255.129 336.282> 453.896 31.9528<84.1094 84.4779 156.029 210.433> 459.219 50.5501<210.61 217.196 249.138 262.115> 460.983 36.5479<404.785 420.062>
LayerCount: 2
Fore
SplineSet
287.90234375 -4.615234375 m 5,0,-1
 285.647460938 7.3623046875 l 6,1,2
 282.988070073 17.8748075716 282.988070073 17.8748075716 274.829645617 37.668241167 c 132,-1,3
 266.67122116 57.4616747623 266.67122116 57.4616747623 264.024414062 67.646484375 c 5,4,5
 256.98194107 71.1695863562 256.98194107 71.1695863562 261.468496817 92.3279079861 c 4,6,7
 262.221434405 95.8787154551 262.221434405 95.8787154551 252.256835938 91.20703125 c 5,8,9
 241.776393428 94.5777841293 241.776393428 94.5777841293 240.986704541 116.563562723 c 132,-1,10
 240.197015655 138.549341318 240.197015655 138.549341318 230.1875 142.671875 c 5,11,12
 216.980955521 144.180761527 216.980955521 144.180761527 213.514483615 156.782737403 c 4,13,14
 208.502956701 175.001590165 208.502956701 175.001590165 237.455382813 165.437523438 c 4,15,16
 260.100117159 157.957122677 260.100117159 157.957122677 259.99075 165.345835937 c 4,17,18
 259.932251073 169.297952821 259.932251073 169.297952821 258.614932451 177.525228235 c 132,-1,19
 257.297613828 185.75250365 257.297613828 185.75250365 258.54260706 195.982711227 c 132,-1,20
 259.787600292 206.212918804 259.787600292 206.212918804 255.671911169 212.492874711 c 132,-1,21
 251.556222046 218.772830617 251.556222046 218.772830617 240.15625 214.796875 c 5,22,23
 238.871860984 219.657359546 238.871860984 219.657359546 236.871768213 230.972185552 c 132,-1,24
 234.871675442 242.287011558 234.871675442 242.287011558 233.201840185 248.024747431 c 4,25,26
 228.389927233 264.559004599 228.389927233 264.559004599 211.608398438 271.053710938 c 5,27,28
 199.431392769 289.287038095 199.431392769 289.287038095 223.358300794 290.11693582 c 4,29,30
 242.654350556 290.786213596 242.654350556 290.786213596 253.952148438 282.852539062 c 5,31,32
 253.731870154 291.00833648 253.731870154 291.00833648 253.737731056 305.330214091 c 4,33,34
 253.747784642 329.897461669 253.747784642 329.897461669 248.333984375 337.375976562 c 5,35,36
 229.608049537 331.57726009 229.608049537 331.57726009 230.477966848 355.37374649 c 4,37,38
 231.4412314 381.723735744 231.4412314 381.723735744 217.330078125 386.079101562 c 5,39,40
 197.600828335 401.325757795 197.600828335 401.325757795 199.028268828 407.546766145 c 132,-1,41
 200.45570932 413.767774496 200.45570932 413.767774496 205.767578125 418.044921875 c 5,42,43
 216.207845999 420.330922905 216.207845999 420.330922905 228.706537434 414.717516466 c 132,-1,44
 241.205228868 409.104110026 241.205228868 409.104110026 246.451871995 410.682474427 c 132,-1,45
 251.698515122 412.260838828 251.698515122 412.260838828 249.875870644 420.798052189 c 132,-1,46
 248.053226165 429.335265551 248.053226165 429.335265551 247.729519436 435.12798343 c 132,-1,47
 247.405812706 440.920701308 247.405812706 440.920701308 247.140963963 445.323432586 c 132,-1,48
 246.87611522 449.726163863 246.87611522 449.726163863 246.931821591 455.089119859 c 132,-1,49
 246.987527962 460.452075855 246.987527962 460.452075855 247.521353141 464.289506081 c 4,50,51
 248.776183925 473.309922819 248.776183925 473.309922819 253.350585938 476.361328125 c 5,52,53
 254.2042641 480.087896922 254.2042641 480.087896922 254.111714767 492.712551404 c 132,-1,54
 254.019165435 505.337205885 254.019165435 505.337205885 257.992451899 510.73406318 c 132,-1,55
 261.965738363 516.130920474 261.965738363 516.130920474 273.905273438 515.8359375 c 5,56,57
 298.103874575 523.948108049 298.103874575 523.948108049 320.901558102 561.44763324 c 4,58,59
 331.937086363 579.599787581 331.937086363 579.599787581 338.733100098 586.745106458 c 132,-1,60
 345.529113833 593.890425334 345.529113833 593.890425334 350.751785278 591.540618896 c 132,-1,61
 355.974456724 589.190812459 355.974456724 589.190812459 358.01965332 583.969970703 c 132,-1,62
 360.064849917 578.749128948 360.064849917 578.749128948 362.661239624 572.112091064 c 132,-1,63
 365.257629331 565.475053181 365.257629331 565.475053181 367.90625 564.190429688 c 4,64,65
 382.260105092 559.626736973 382.260105092 559.626736973 385.624360845 578.233378945 c 4,66,67
 388.935157387 596.544354806 388.935157387 596.544354806 404.354492188 590.337890625 c 5,68,69
 414.038788408 582.089354393 414.038788408 582.089354393 431.678150614 553.861979011 c 132,-1,70
 449.317512819 525.634603628 449.317512819 525.634603628 460.886943659 520.472899571 c 132,-1,71
 472.456374499 515.311195515 472.456374499 515.311195515 475.246757812 514.340507813 c 132,-1,72
 478.037141126 513.36982011 478.037141126 513.36982011 483.71515625 510.669804688 c 132,-1,73
 489.393171374 507.969789265 489.393171374 507.969789265 490.048164063 505.509414063 c 132,-1,74
 490.703156751 503.04903886 490.703156751 503.04903886 492.742265625 498.208007812 c 132,-1,75
 494.781374499 493.366976765 494.781374499 493.366976765 490.293945312 488.114257812 c 5,76,77
 499.918656608 467.123110823 499.918656608 467.123110823 497.53125 419.8671875 c 5,78,79
 494.404802297 405.761987098 494.404802297 405.761987098 499.226514779 404.749883504 c 132,-1,80
 504.048227262 403.737779911 504.048227262 403.737779911 512.194085287 408.90793303 c 132,-1,81
 520.339943312 414.07808615 520.339943312 414.07808615 524.502971376 415.916040866 c 4,82,83
 537.567989238 421.684176661 537.567989238 421.684176661 544.109375 413.194335938 c 5,84,85
 546.227633054 402.566107566 546.227633054 402.566107566 529.693438821 386.915842899 c 132,-1,86
 513.159244588 371.265578231 513.159244588 371.265578231 515.524414062 358.515625 c 5,87,88
 513.980350524 329.372054401 513.980350524 329.372054401 503.58077886 331.151009991 c 4,89,90
 500.351103251 331.703479811 500.351103251 331.703479811 496.223632812 334.819335938 c 5,91,92
 494.081030323 323.904373135 494.081030323 323.904373135 492.794024538 303.294183286 c 132,-1,93
 491.507018753 282.683993438 491.507018753 282.683993438 490.944335938 277.521484375 c 5,94,95
 526.273139112 295.61513695 526.273139112 295.61513695 540.39453125 288.494140625 c 5,96,97
 548.491229257 282.696353412 548.491229257 282.696353412 543.429190148 277.248969383 c 132,-1,98
 538.367151039 271.801585354 538.367151039 271.801585354 533.863708496 268.039245605 c 132,-1,99
 529.360265953 264.276905857 529.360265953 264.276905857 527.705078125 262.22265625 c 5,100,101
 509.384623694 258.95103884 509.384623694 258.95103884 509.76888754 234.955831384 c 4,102,103
 510.144626493 211.492957626 510.144626493 211.492957626 493.713867188 210.576171875 c 5,104,105
 483.416904026 206.1129297 483.416904026 206.1129297 485.848275854 185.392821015 c 132,-1,106
 488.279647683 164.672712331 488.279647683 164.672712331 486.37109375 155.747070312 c 5,107,108
 507.221219143 168.420560684 507.221219143 168.420560684 525.983442596 164.514633169 c 4,109,110
 539.518715692 161.696854362 539.518715692 161.696854362 531.2109375 145.4609375 c 5,111,112
 501.282505299 129.151837882 501.282505299 129.151837882 500.385742188 92.05859375 c 5,113,114
 497.580486676 90.9581364732 497.580486676 90.9581364732 491.258880793 90.330680523 c 132,-1,115
 484.93727491 89.7032245728 484.93727491 89.7032245728 483.423085353 87.0905434353 c 132,-1,116
 481.908895795 84.4778622978 481.908895795 84.4778622978 482.325933644 73.8503911834 c 132,-1,117
 482.742971493 63.2229200689 482.742971493 63.2229200689 471.460656309 41.7204230075 c 132,-1,118
 460.178341125 20.217925946 460.178341125 20.217925946 458.065429688 10.26171875 c 5,119,120
 459.955062118 0.286926101825 459.955062118 0.286926101825 455.992707481 -3.05499501186 c 132,-1,121
 452.030352844 -6.39691612555 452.030352844 -6.39691612555 442.255859375 -4.615234375 c 5,122,-1
 287.90234375 -4.615234375 l 5,0,-1
342.102539062 90.3203125 m 5,123,124
 343.335094269 95.3418015173 343.335094269 95.3418015173 340.158271307 96.4060812848 c 132,-1,125
 336.981448345 97.4703610523 336.981448345 97.4703610523 330.956637547 96.6857155902 c 132,-1,126
 324.931826749 95.9010701282 324.931826749 95.9010701282 322.771484375 96.53125 c 6,127,-1
 295.965820312 96.53125 l 5,128,129
 292.457804388 80.4326784002 292.457804388 80.4326784002 308.391601562 84.109375 c 5,130,-1
 342.102539062 84.109375 l 5,131,-1
 342.102539062 90.3203125 l 5,123,124
450.346679688 90.3203125 m 5,132,133
 451.884228806 96.5843613411 451.884228806 96.5843613411 448.111140046 96.7589245168 c 132,-1,134
 444.338051285 96.9334876926 444.338051285 96.9334876926 441.4654375 96.763890625 c 132,-1,135
 438.592823715 96.5942935574 438.592823715 96.5942935574 435.823179687 96.230125 c 132,-1,136
 433.05353566 95.8659564426 433.05353566 95.8659564426 431.015625 96.53125 c 6,137,-1
 404.209960938 96.53125 l 5,138,139
 400.701945013 80.4326784002 400.701945013 80.4326784002 416.635742188 84.109375 c 5,140,-1
 450.346679688 84.109375 l 5,141,-1
 450.346679688 90.3203125 l 5,132,133
453.895507812 217.196289062 m 5,142,-1
 407.000976562 216.299804688 l 5,143,144
 406.860475742 194.477505404 406.860475742 194.477505404 408.376953125 130.250976562 c 5,145,146
 421.93970721 127.62067512 421.93970721 127.62067512 453.895507812 126.697265625 c 5,147,-1
 453.895507812 217.196289062 l 5,142,-1
338.112304688 130.189453125 m 4,148,149
 339.71262724 134.973986147 339.71262724 134.973986147 338.475480374 171.884336333 c 132,-1,150
 337.238333507 208.794686519 337.238333507 208.794686519 337.161132812 218.970703125 c 5,151,-1
 290.641601562 218.970703125 l 5,152,-1
 290.641601562 128.471679688 l 5,153,154
 292.454640949 128.55300957 292.454640949 128.55300957 314.533325195 128.310668945 c 132,-1,155
 336.612009441 128.068328321 336.612009441 128.068328321 338.112304688 130.189453125 c 4,148,149
459.21875 339.63671875 m 5,156,-1
 409.533203125 337.84375 l 5,157,-1
 409.533203125 249.137695312 l 5,158,-1
 459.21875 249.137695312 l 5,159,-1
 459.21875 339.63671875 l 5,156,-1
334.6875 341.09375 m 5,160,-1
 285.318359375 341.411132812 l 5,161,-1
 285.318359375 250.912109375 l 5,162,163
 287.148749753 250.993409539 287.148749753 250.993409539 310.311279297 250.732055664 c 132,-1,164
 333.473808841 250.470701789 333.473808841 250.470701789 334.974609375 252.703125 c 6,165,-1
 335.995117188 255.12890625 l 5,166,-1
 334.6875 341.09375 l 5,160,-1
460.993164062 371.577148438 m 5,167,-1
 460.983398438 386.216796875 l 5,168,169
 466.793475931 406.138187701 466.793475931 406.138187701 449.89855957 420.512084961 c 132,-1,170
 433.00364321 434.885982221 433.00364321 434.885982221 419.185546875 414.810546875 c 5,171,172
 410.928614157 389.175651112 410.928614157 389.175651112 414.517578125 371.577148438 c 5,173,-1
 460.993164062 371.577148438 l 5,167,-1
332.059570312 376.030273438 m 5,174,175
 336.143921574 392.261130189 336.143921574 392.261130189 328.253304744 411.37926593 c 132,-1,176
 320.362687915 430.497401671 320.362687915 430.497401671 302.470703125 427.696289062 c 5,177,178
 285.133582506 421.266203328 285.133582506 421.266203328 285.314952426 389.110175529 c 4,179,180
 285.384603247 376.761414774 285.384603247 376.761414774 285.260115041 374.661959459 c 132,-1,181
 285.135626835 372.562504145 285.135626835 372.562504145 295.748291016 373.127197266 c 132,-1,182
 306.360955196 373.691890386 306.360955196 373.691890386 309.43453055 373.948577273 c 132,-1,183
 312.508105905 374.205264161 312.508105905 374.205264161 316.89275897 373.42755353 c 4,184,185
 329.003007681 371.279545689 329.003007681 371.279545689 332.059570312 376.030273438 c 5,174,175
EndSplineSet
EndChar

StartChar: i
Encoding: 105 105 40
Width: 744
VWidth: 0
HStem: 139.491 51.416<187.313 229.661> 209.548 63.9795<205.211 255.643> 387.724 58.6484<255.869 307.987> 469.55 64.5967<287.336 335.267> 557.934 64.8496<313.483 363.747>
VStem: 255.628 52.3809<414.58 445.582>
LayerCount: 2
Fore
SplineSet
270.938476562 -21.2509765625 m 6,0,1
 269.654296875 -5.759765625 269.654296875 -5.759765625 266.866210938 -0.13671875 c 132,-1,2
 264.078125 5.4873046875 264.078125 5.4873046875 245.38671875 20.3935546875 c 132,-1,3
 226.694335938 35.2998046875 226.694335938 35.2998046875 222.146484375 41.3017578125 c 4,4,5
 210.618164062 56.517578125 210.618164062 56.517578125 224.352539062 98.22265625 c 132,-1,6
 238.087890625 139.926757812 238.087890625 139.926757812 228.845703125 139.491210938 c 4,7,8
 224.872070312 139.3046875 224.872070312 139.3046875 215.36328125 131.825195312 c 132,-1,9
 205.854492188 124.345703125 205.854492188 124.345703125 196.614257812 126.665039062 c 132,-1,10
 187.374023438 128.984375 187.374023438 128.984375 183.1328125 132.022460938 c 4,11,12
 175.360351562 137.58984375 175.360351562 137.58984375 175.360351562 155.3125 c 132,-1,13
 175.360351562 173.036132812 175.360351562 173.036132812 186.950195312 183.72265625 c 132,-1,14
 198.5390625 194.408203125 198.5390625 194.408203125 211.846679688 190.907226562 c 132,-1,15
 225.154296875 187.40625 225.154296875 187.40625 229.450195312 170.291992188 c 4,16,17
 236.162109375 143.55078125 236.162109375 143.55078125 246.837890625 170.8125 c 4,18,19
 265.21484375 217.740234375 265.21484375 217.740234375 258.6015625 221.643554688 c 132,-1,20
 251.989257812 225.546875 251.989257812 225.546875 244.0078125 217.565429688 c 132,-1,21
 236.025390625 209.583984375 236.025390625 209.583984375 225.642578125 209.547851562 c 132,-1,22
 215.258789062 209.510742188 215.258789062 209.510742188 204.88671875 219.8828125 c 132,-1,23
 194.514648438 230.254882812 194.514648438 230.254882812 202.34765625 251.890625 c 132,-1,24
 210.1796875 273.52734375 210.1796875 273.52734375 224.045898438 273.52734375 c 132,-1,25
 237.913085938 273.52734375 237.913085938 273.52734375 246.833007812 265.944335938 c 132,-1,26
 255.752929688 258.361328125 255.752929688 258.361328125 255.752929688 252.30078125 c 132,-1,27
 255.752929688 246.240234375 255.752929688 246.240234375 258.553710938 242.864257812 c 4,28,29
 264.936523438 235.169921875 264.936523438 235.169921875 267.778320312 239.2734375 c 132,-1,30
 270.62109375 243.376953125 270.62109375 243.376953125 280.016601562 272.575195312 c 132,-1,31
 289.411132812 301.771484375 289.411132812 301.771484375 284.736328125 306.446289062 c 132,-1,32
 280.061523438 311.122070312 280.061523438 311.122070312 273.090820312 304.813476562 c 132,-1,33
 266.120117188 298.505859375 266.120117188 298.505859375 254.10546875 297.091796875 c 132,-1,34
 242.090820312 295.676757812 242.090820312 295.676757812 236.0234375 299.426757812 c 132,-1,35
 229.956054688 303.176757812 229.956054688 303.176757812 228.9765625 318.451171875 c 132,-1,36
 227.997070312 333.725585938 227.997070312 333.725585938 234.888671875 348.177734375 c 132,-1,37
 241.780273438 362.629882812 241.780273438 362.629882812 259.8828125 361.471679688 c 132,-1,38
 277.984375 360.3125 277.984375 360.3125 282.985351562 341.013671875 c 4,39,40
 291.440429688 308.385742188 291.440429688 308.385742188 306.994140625 359.528320312 c 4,41,42
 316.64453125 391.264648438 316.64453125 391.264648438 311.383789062 394.515625 c 132,-1,43
 306.122070312 397.766601562 306.122070312 397.766601562 297.762695312 389.912109375 c 4,44,45
 280.875 374.046875 280.875 374.046875 264.541015625 387.723632812 c 132,-1,46
 248.20703125 401.399414062 248.20703125 401.399414062 255.627929688 423.885742188 c 132,-1,47
 263.048828125 446.372070312 263.048828125 446.372070312 285.013671875 446.372070312 c 4,48,49
 293.143554688 446.372070312 293.143554688 446.372070312 300.576171875 439.494140625 c 132,-1,50
 308.008789062 432.6171875 308.008789062 432.6171875 308.008789062 425.567382812 c 132,-1,51
 308.008789062 418.518554688 308.008789062 418.518554688 315.604492188 414.452148438 c 132,-1,52
 323.200195312 410.387695312 323.200195312 410.387695312 325.330078125 417.326171875 c 4,53,54
 338.701171875 460.879882812 338.701171875 460.879882812 340.477539062 470.201171875 c 132,-1,55
 342.25390625 479.522460938 342.25390625 479.522460938 336.78515625 481.62109375 c 132,-1,56
 331.315429688 483.720703125 331.315429688 483.720703125 328.624023438 479.3671875 c 132,-1,57
 325.935546875 475.013671875 325.935546875 475.013671875 311.565429688 469.549804688 c 132,-1,58
 297.194335938 464.0859375 297.194335938 464.0859375 287.016601562 477.708007812 c 132,-1,59
 276.838867188 491.329101562 276.838867188 491.329101562 283.737304688 512.233398438 c 132,-1,60
 290.635742188 533.13671875 290.635742188 533.13671875 309.313476562 534.146484375 c 132,-1,61
 327.990234375 535.15625 327.990234375 535.15625 334.654296875 514.620117188 c 4,62,63
 344.42578125 484.515625 344.42578125 484.515625 356.563476562 518.67578125 c 6,64,-1
 360.133789062 529.635742188 l 6,65,66
 369.610351562 560.950195312 369.610351562 560.950195312 371.393554688 565.95703125 c 132,-1,67
 373.188476562 570.997070312 373.188476562 570.997070312 367.403320312 570.841796875 c 4,68,69
 359.459960938 570.626953125 359.459960938 570.626953125 347.740234375 561.962890625 c 132,-1,70
 336.020507812 553.297851562 336.020507812 553.297851562 324.427734375 557.93359375 c 132,-1,71
 312.8359375 562.569335938 312.8359375 562.569335938 309.822265625 575.599609375 c 132,-1,72
 306.809570312 588.630859375 306.809570312 588.630859375 313.202148438 605.092773438 c 5,73,74
 322.119140625 623.791992188 322.119140625 623.791992188 340.224609375 622.783203125 c 132,-1,75
 358.330078125 621.774414062 358.330078125 621.774414062 362.703125 604.8984375 c 132,-1,76
 367.076171875 588.0234375 367.076171875 588.0234375 373.427734375 588.25 c 132,-1,77
 379.779296875 588.4765625 379.779296875 588.4765625 386.381835938 603.1171875 c 4,78,79
 399.388671875 631.958984375 399.388671875 631.958984375 430.223632812 647.302734375 c 132,-1,80
 461.05859375 662.646484375 461.05859375 662.646484375 496.026367188 655.344726562 c 132,-1,81
 530.993164062 648.04296875 530.993164062 648.04296875 554.819335938 609.736328125 c 4,82,83
 566.48046875 590.987304688 566.48046875 590.987304688 568.568359375 558.447265625 c 132,-1,84
 570.65625 525.907226562 570.65625 525.907226562 557.069335938 502.430664062 c 132,-1,85
 543.482421875 478.954101562 543.482421875 478.954101562 505.930664062 453.864257812 c 4,86,87
 490.0703125 443.266601562 490.0703125 443.266601562 488.223632812 435.775390625 c 4,88,89
 482.56640625 412.814453125 482.56640625 412.814453125 502.169921875 330.94140625 c 132,-1,90
 521.772460938 249.068359375 521.772460938 249.068359375 528.573242188 200.822265625 c 132,-1,91
 535.373046875 152.576171875 535.373046875 152.576171875 532.4296875 144.905273438 c 132,-1,92
 529.486328125 137.234375 529.486328125 137.234375 505.467773438 122.064453125 c 132,-1,93
 481.44921875 106.895507812 481.44921875 106.895507812 469.399414062 92.7392578125 c 132,-1,94
 457.349609375 78.583984375 457.349609375 78.583984375 447.0546875 56.822265625 c 132,-1,95
 436.759765625 35.0595703125 436.759765625 35.0595703125 434.69140625 24.5986328125 c 132,-1,96
 432.623046875 14.13671875 432.623046875 14.13671875 432.62109375 -8.853515625 c 6,97,-1
 432.618164062 -44.025390625 l 5,98,-1
 272.827148438 -44.025390625 l 5,99,-1
 270.938476562 -21.2509765625 l 6,0,1
EndSplineSet
EndChar

StartChar: j
Encoding: 106 106 41
Width: 744
VWidth: 0
HStem: 601.084 20G<204.175 212.9>
VStem: 211.054 299.819<256.95 444.685 497.693 619.978> 270.857 162.346<-45.1927 41.4324>
LayerCount: 2
Fore
SplineSet
124.059570312 157.806640625 m 5,0,1
 95.2349322396 163.60374937 95.2349322396 163.60374937 102.982299805 194.442993164 c 4,2,3
 111.401827992 227.957845819 111.401827992 227.957845819 107.096369593 246.259965965 c 132,-1,4
 102.790911194 264.562086111 102.790911194 264.562086111 113.37251202 275.328326642 c 132,-1,5
 123.954112846 286.094567174 123.954112846 286.094567174 138.934779647 282.592897316 c 132,-1,6
 153.915446448 279.091227458 153.915446448 279.091227458 160.217773438 261.959960938 c 5,7,8
 168.101417431 250.693238648 168.101417431 250.693238648 180.902846747 245.408886557 c 132,-1,9
 193.704276063 240.124534465 193.704276063 240.124534465 201.993637628 246.432584798 c 132,-1,10
 210.282999193 252.74063513 210.282999193 252.74063513 205.680664062 271.14453125 c 5,11,12
 209.528773814 320.724687529 209.528773814 320.724687529 211.053710938 444.694335938 c 5,13,14
 191.296157834 446.286292509 191.296157834 446.286292509 174.195995887 430.160920081 c 4,15,16
 169.192070186 425.44224164 169.192070186 425.44224164 158.623126428 412.443907799 c 132,-1,17
 148.054182669 399.445573959 148.054182669 399.445573959 146.11328125 397.247070312 c 5,18,19
 123.578973464 386.112837682 123.578973464 386.112837682 113.283569336 405.229858398 c 132,-1,20
 102.988165208 424.346879115 102.988165208 424.346879115 114.912109375 442.901367188 c 5,21,22
 116.533051816 450.847838975 116.533051816 450.847838975 113.540604068 473.578557476 c 132,-1,23
 110.54815632 496.309275976 110.54815632 496.309275976 115.041101661 509.514867003 c 132,-1,24
 119.534047002 522.720458031 119.534047002 522.720458031 138.768554688 523.224609375 c 5,25,26
 148.569766028 520.598120561 148.569766028 520.598120561 167.426266886 499.802038463 c 132,-1,27
 186.282767743 479.005956366 186.282767743 479.005956366 203.82421875 480.146484375 c 4,28,29
 209.322040723 479.62726002 209.322040723 479.62726002 209.997579522 484.281813167 c 132,-1,30
 210.673118321 488.936366313 210.673118321 488.936366313 209.304829332 496.434007146 c 132,-1,31
 207.936540344 503.931647978 207.936540344 503.931647978 208.013802399 513.311445733 c 132,-1,32
 208.091064453 522.691243487 208.091064453 522.691243487 207.197875977 543.321940103 c 132,-1,33
 206.3046875 563.95263672 206.3046875 563.95263672 205.411499023 584.583333334 c 132,-1,34
 204.518310547 605.214029948 204.518310547 605.214029948 203.831054688 621.083984375 c 5,35,36
 258.19925652 615.920548306 258.19925652 615.920548306 286.654712706 632.850678422 c 132,-1,37
 315.110168892 649.780808537 315.110168892 649.780808537 371.415039062 650.040039062 c 5,38,39
 388.533079215 651.624377462 388.533079215 651.624377462 419.864222108 640.870063976 c 132,-1,40
 451.195365001 630.115750489 451.195365001 630.115750489 467.170898438 630.5234375 c 5,41,42
 493.662020841 636.901499375 493.662020841 636.901499375 512.21336608 626.943489781 c 132,-1,43
 530.76471132 616.985480187 530.76471132 616.985480187 521.196289062 589.780273438 c 5,44,45
 522.092326834 579.834752894 522.092326834 579.834752894 519.048697571 559.268844614 c 4,46,47
 512.147626774 512.638070384 512.147626774 512.638070384 527.223632812 497.392578125 c 5,48,49
 551.614539834 493.729794197 551.614539834 493.729794197 582.666416061 523.622910814 c 4,50,51
 596.929888712 537.354114953 596.929888712 537.354114953 605.1015625 542.25 c 5,52,53
 631.48766686 546.222619047 631.48766686 546.222619047 632.967732028 525.696117909 c 4,54,55
 633.78516307 514.359455449 633.78516307 514.359455449 630.492055134 493.187691121 c 132,-1,56
 627.198947198 472.015926793 627.198947198 472.015926793 627.89453125 465.596679688 c 5,57,58
 634.298891497 452.349528286 634.298891497 452.349528286 629.272207755 435.87250434 c 132,-1,59
 624.245524012 419.395480395 624.245524012 419.395480395 613.03443287 414.73687066 c 132,-1,60
 601.823341729 410.078260924 601.823341729 410.078260924 587.654296875 423.514648438 c 5,61,62
 577.685682635 443.035879959 577.685682635 443.035879959 553.162231445 455.081176758 c 132,-1,63
 528.638780256 467.126473556 528.638780256 467.126473556 516.763671875 450.200195312 c 4,64,65
 510.112889342 440.600754996 510.112889342 440.600754996 510.020719647 423.41455506 c 132,-1,66
 509.928549953 406.228355125 509.928549953 406.228355125 510.39402454 390.533522438 c 132,-1,67
 510.859499127 374.838689751 510.859499127 374.838689751 511.05233628 365.96206502 c 132,-1,68
 511.245173433 357.085440289 511.245173433 357.085440289 511.736184682 342.003385595 c 132,-1,69
 512.227195931 326.921330901 512.227195931 326.921330901 512.63715211 315.042573878 c 4,70,71
 514.040165031 274.389327335 514.040165031 274.389327335 514.5234375 259.795898438 c 5,72,73
 556.550606467 248.150451241 556.550606467 248.150451241 583.389648438 278.340820312 c 5,74,75
 594.289043606 295.842733709 594.289043606 295.842733709 611.011962891 300.408569336 c 132,-1,76
 627.734882175 304.974404963 627.734882175 304.974404963 641.987304688 289.024414062 c 5,77,78
 632.202884528 262.627799343 632.202884528 262.627799343 632.00714253 226.083954785 c 132,-1,79
 631.811400532 189.540110226 631.811400532 189.540110226 631.735351562 185.724609375 c 5,80,81
 616.810746027 168.572392017 616.810746027 168.572392017 606.295312563 174.446670937 c 132,-1,82
 595.7798791 180.320949856 595.7798791 180.320949856 590.947147246 184.556314336 c 132,-1,83
 586.114415391 188.791678817 586.114415391 188.791678817 578.566219942 197.437005976 c 132,-1,84
 571.018024493 206.082333136 571.018024493 206.082333136 562.571444811 213.573383915 c 132,-1,85
 554.124865129 221.064434694 554.124865129 221.064434694 538.020978009 222.098560475 c 132,-1,86
 521.917090889 223.132686255 521.917090889 223.132686255 515.454282407 213.525788484 c 132,-1,87
 508.991473926 203.918890713 508.991473926 203.918890713 516.3671875 185.358398438 c 5,88,89
 516.70538509 158.740938429 516.70538509 158.740938429 510.622773934 133.939236107 c 132,-1,90
 504.540162778 109.137533786 504.540162778 109.137533786 493.736328125 98.599609375 c 5,91,92
 436.233696666 31.2841772795 436.233696666 31.2841772795 433.203125 -38.109375 c 5,93,94
 435.933866587 -49.1627530321 435.933866587 -49.1627530321 419.218822338 -45.6181278935 c 4,95,96
 412.993822309 -44.2980421515 412.993822309 -44.2980421515 408.580078125 -45.888671875 c 5,97,98
 284.470480604 -48.143292206 284.470480604 -48.143292206 270.633789062 -47.6142578125 c 5,99,100
 270.623159635 -45.0174543081 270.623159635 -45.0174543081 270.857167848 -26.1766692455 c 132,-1,101
 271.091176062 -7.33588418284 271.091176062 -7.33588418284 270.587386839 -1.01615887951 c 132,-1,102
 270.083597617 5.30356642381 270.083597617 5.30356642381 268.527886598 19.4086588795 c 4,103,104
 265.887114996 43.3516194704 265.887114996 43.3516194704 252.65625 62.7822265625 c 5,105,106
 238.038218456 93.4076775237 238.038218456 93.4076775237 188.493164062 125.112304688 c 5,107,108
 198.320499383 202.22333761 198.320499383 202.22333761 198.721679688 206.958007812 c 5,109,110
 180.986234749 205.038199569 180.986234749 205.038199569 159.211851201 182.665977529 c 132,-1,111
 137.437467653 160.293755488 137.437467653 160.293755488 124.059570312 157.806640625 c 5,0,1
EndSplineSet
EndChar
